<svg width="76" height="49" viewBox="0 0 76 49" fill="none" xmlns="http://www.w3.org/2000/svg">
<rect x="1.014" y="1.014" width="73.008" height="38.532" rx="9.126" fill="white" stroke="#FDAF5C" stroke-width="2.028"/>
<path d="M23.6337 17.5365V19.6576C23.6337 20.6736 23.5327 21.541 23.3307 22.2599C23.1346 22.9729 22.8495 23.5522 22.4752 23.9978C22.1008 24.4434 21.6523 24.7702 21.1294 24.9781C20.6125 25.1861 20.0332 25.2901 19.3916 25.2901C18.8806 25.2901 18.4053 25.2247 17.9656 25.094C17.5319 24.9633 17.1398 24.7583 16.7892 24.4791C16.4387 24.1998 16.1386 23.8404 15.8891 23.4007C15.6455 22.9551 15.4554 22.4233 15.3187 21.8054C15.188 21.1875 15.1227 20.4716 15.1227 19.6576V17.5365C15.1227 16.5146 15.2237 15.6531 15.4257 14.952C15.6277 14.245 15.9158 13.6716 16.2901 13.232C16.6645 12.7864 17.1101 12.4626 17.627 12.2606C18.1498 12.0585 18.7321 11.9575 19.3737 11.9575C19.8906 11.9575 20.366 12.0229 20.7997 12.1536C21.2393 12.2784 21.6315 12.4774 21.9761 12.7507C22.3266 13.024 22.6237 13.3805 22.8673 13.8202C23.1168 14.2539 23.3069 14.7797 23.4377 15.3976C23.5684 16.0096 23.6337 16.7225 23.6337 17.5365ZM21.4859 19.9606V17.2157C21.4859 16.6988 21.4562 16.2443 21.3968 15.8521C21.3374 15.4541 21.2483 15.1184 21.1294 14.8451C21.0165 14.5658 20.8739 14.34 20.7016 14.1677C20.5293 13.9895 20.3333 13.8618 20.1134 13.7845C19.8936 13.7013 19.647 13.6598 19.3737 13.6598C19.041 13.6598 18.7439 13.7251 18.4825 13.8558C18.2211 13.9806 18.0013 14.1826 17.823 14.4618C17.6448 14.7411 17.5081 15.1095 17.4131 15.5669C17.324 16.0185 17.2794 16.5681 17.2794 17.2157V19.9606C17.2794 20.4835 17.3091 20.9439 17.3685 21.342C17.4279 21.7401 17.517 22.0817 17.6359 22.3669C17.7547 22.6461 17.8973 22.8778 18.0637 23.062C18.236 23.2403 18.432 23.371 18.6519 23.4542C18.8776 23.5373 19.1242 23.5789 19.3916 23.5789C19.7302 23.5789 20.0303 23.5136 20.2917 23.3829C20.5531 23.2522 20.7729 23.0442 20.9512 22.759C21.1294 22.4679 21.2631 22.0906 21.3522 21.6272C21.4413 21.1638 21.4859 20.6082 21.4859 19.9606ZM25.7637 24.0424C25.7637 23.7096 25.8766 23.4304 26.1024 23.2046C26.3282 22.9729 26.6341 22.8571 27.0203 22.8571C27.4125 22.8571 27.7184 22.9729 27.9383 23.2046C28.164 23.4304 28.2769 23.7096 28.2769 24.0424C28.2769 24.3751 28.164 24.6543 27.9383 24.8801C27.7184 25.1059 27.4125 25.2188 27.0203 25.2188C26.6341 25.2188 26.3282 25.1059 26.1024 24.8801C25.8766 24.6543 25.7637 24.3751 25.7637 24.0424ZM39.1141 21.5737C39.1141 22.3817 38.9269 23.062 38.5526 23.6146C38.1783 24.1671 37.6673 24.586 37.0197 24.8712C36.378 25.1504 35.6532 25.2901 34.8452 25.2901C34.0371 25.2901 33.3093 25.1504 32.6617 24.8712C32.0141 24.586 31.5031 24.1671 31.1288 23.6146C30.7545 23.062 30.5673 22.3817 30.5673 21.5737C30.5673 21.039 30.6713 20.5548 30.8793 20.121C31.0872 19.6814 31.3813 19.3041 31.7616 18.9892C32.1478 18.6684 32.5993 18.4218 33.1162 18.2495C33.6391 18.0772 34.2094 17.991 34.8273 17.991C35.6473 17.991 36.381 18.1425 37.0286 18.4456C37.6762 18.7486 38.1842 19.1674 38.5526 19.7022C38.9269 20.2369 39.1141 20.8607 39.1141 21.5737ZM36.9573 21.4668C36.9573 21.033 36.8682 20.6528 36.69 20.326C36.5117 19.9992 36.2622 19.7467 35.9414 19.5685C35.6205 19.3902 35.2492 19.3011 34.8273 19.3011C34.3996 19.3011 34.0282 19.3902 33.7133 19.5685C33.3984 19.7467 33.1519 19.9992 32.9736 20.326C32.8013 20.6528 32.7152 21.033 32.7152 21.4668C32.7152 21.9064 32.8013 22.2867 32.9736 22.6075C33.1459 22.9224 33.3925 23.163 33.7133 23.3294C34.0342 23.4958 34.4114 23.5789 34.8452 23.5789C35.2789 23.5789 35.6532 23.4958 35.9681 23.3294C36.283 23.163 36.5266 22.9224 36.6989 22.6075C36.8712 22.2867 36.9573 21.9064 36.9573 21.4668ZM38.82 15.5491C38.82 16.1967 38.6477 16.7731 38.3031 17.2781C37.9644 17.7831 37.495 18.1812 36.8949 18.4723C36.2949 18.7575 35.6116 18.9001 34.8452 18.9001C34.0728 18.9001 33.3836 18.7575 32.7776 18.4723C32.1775 18.1812 31.7051 17.7831 31.3605 17.2781C31.0219 16.7731 30.8525 16.1967 30.8525 15.5491C30.8525 14.7767 31.0219 14.1262 31.3605 13.5974C31.7051 13.0626 32.1775 12.6557 32.7776 12.3764C33.3776 12.0972 34.0639 11.9575 34.8362 11.9575C35.6086 11.9575 36.2949 12.0972 36.8949 12.3764C37.495 12.6557 37.9644 13.0626 38.3031 13.5974C38.6477 14.1262 38.82 14.7767 38.82 15.5491ZM36.6721 15.6204C36.6721 15.2342 36.5949 14.8956 36.4404 14.6044C36.2919 14.3074 36.081 14.0757 35.8077 13.9093C35.5344 13.7429 35.2106 13.6598 34.8362 13.6598C34.4619 13.6598 34.1381 13.74 33.8648 13.9004C33.5915 14.0608 33.3806 14.2866 33.2321 14.5777C33.0835 14.8688 33.0093 15.2164 33.0093 15.6204C33.0093 16.0185 33.0835 16.3661 33.2321 16.6631C33.3806 16.9543 33.5915 17.183 33.8648 17.3494C34.1441 17.5157 34.4709 17.5989 34.8452 17.5989C35.2195 17.5989 35.5433 17.5157 35.8166 17.3494C36.0899 17.183 36.3008 16.9543 36.4493 16.6631C36.5979 16.3661 36.6721 16.0185 36.6721 15.6204ZM47.8212 17.4296V25.1118H45.6734V15.4689H47.6964L47.8212 17.4296ZM47.4736 19.9339L46.7428 19.925C46.7428 19.2595 46.826 18.6446 46.9924 18.0802C47.1587 17.5157 47.4023 17.0256 47.7232 16.6097C48.044 16.1878 48.4421 15.864 48.9174 15.6382C49.3986 15.4065 49.9542 15.2907 50.584 15.2907C51.0236 15.2907 51.4247 15.356 51.7871 15.4867C52.1555 15.6115 52.4733 15.8105 52.7407 16.0838C53.014 16.3572 53.2219 16.7077 53.3645 17.1355C53.5131 17.5633 53.5873 18.0802 53.5873 18.6862V25.1118H51.4395V18.8733C51.4395 18.404 51.3682 18.0356 51.2256 17.7682C51.089 17.5009 50.8899 17.3107 50.6285 17.1979C50.373 17.079 50.067 17.0196 49.7106 17.0196C49.3065 17.0196 48.9619 17.0969 48.6768 17.2513C48.3975 17.4058 48.1688 17.6167 47.9905 17.8841C47.8123 18.1515 47.6816 18.4604 47.5984 18.811C47.5152 19.1615 47.4736 19.5358 47.4736 19.9339ZM53.4536 19.3635L52.4466 19.5863C52.4466 19.004 52.5268 18.4545 52.6872 17.9376C52.8536 17.4147 53.0942 16.9572 53.4091 16.5651C53.7299 16.167 54.125 15.8551 54.5944 15.6293C55.0638 15.4036 55.6015 15.2907 56.2075 15.2907C56.7006 15.2907 57.1403 15.359 57.5265 15.4956C57.9186 15.6264 58.2513 15.8343 58.5246 16.1195C58.7979 16.4047 59.0059 16.776 59.1485 17.2335C59.2911 17.6851 59.3624 18.2317 59.3624 18.8733V25.1118H57.2056V18.8644C57.2056 18.3772 57.1344 18 56.9918 17.7326C56.8551 17.4652 56.659 17.281 56.4036 17.18C56.1481 17.0731 55.8421 17.0196 55.4856 17.0196C55.1529 17.0196 54.8588 17.082 54.6033 17.2068C54.3538 17.3256 54.1429 17.4949 53.9706 17.7148C53.7983 17.9287 53.6675 18.1752 53.5784 18.4545C53.4952 18.7337 53.4536 19.0367 53.4536 19.3635Z" fill="#FDAF5C"/>
</svg>
