<svg width="481" height="348" viewBox="0 0 481 348" fill="none" xmlns="http://www.w3.org/2000/svg">
<g clip-path="url(#clip0_166_1787)">
<rect width="480.48" height="347.88" fill="white"/>
<path d="M36.8706 17.7556C36.8706 19.6848 36.4156 21.5048 35.5056 23.2156C34.5956 24.9264 33.1396 26.3278 31.1376 27.4198C29.1356 28.4754 26.5694 29.0032 23.439 29.0032H16.5594V44.4004H10.335V6.45338H23.439C26.351 6.45338 28.808 6.96298 30.81 7.98218C32.8484 8.96498 34.359 10.3118 35.3418 12.0226C36.361 13.7334 36.8706 15.6444 36.8706 17.7556ZM23.439 23.9254C25.805 23.9254 27.5704 23.3976 28.7352 22.342C29.9 21.25 30.4824 19.7212 30.4824 17.7556C30.4824 13.606 28.1346 11.5312 23.439 11.5312H16.5594V23.9254H23.439ZM55.8565 44.8918C53.0173 44.8918 50.4511 44.2548 48.1579 42.9808C45.8647 41.6704 44.0629 39.8504 42.7525 37.5208C41.4421 35.1548 40.7869 32.4248 40.7869 29.3308C40.7869 26.2732 41.4603 23.5614 42.8071 21.1954C44.1539 18.8294 45.9921 17.0094 48.3217 15.7354C50.6513 14.4614 53.2539 13.8244 56.1295 13.8244C59.0051 13.8244 61.6077 14.4614 63.9373 15.7354C66.2669 17.0094 68.1051 18.8294 69.4519 21.1954C70.7987 23.5614 71.4721 26.2732 71.4721 29.3308C71.4721 32.3884 70.7805 35.1002 69.3973 37.4662C68.0141 39.8322 66.1213 41.6704 63.7189 42.9808C61.3529 44.2548 58.7321 44.8918 55.8565 44.8918ZM55.8565 39.4864C57.4581 39.4864 58.9505 39.1042 60.3337 38.3398C61.7533 37.5754 62.8999 36.4288 63.7735 34.9C64.6471 33.3712 65.0839 31.5148 65.0839 29.3308C65.0839 27.1468 64.6653 25.3086 63.8281 23.8162C62.9909 22.2874 61.8807 21.1408 60.4975 20.3764C59.1143 19.612 57.6219 19.2298 56.0203 19.2298C54.4187 19.2298 52.9263 19.612 51.5431 20.3764C50.1963 21.1408 49.1225 22.2874 48.3217 23.8162C47.5209 25.3086 47.1205 27.1468 47.1205 29.3308C47.1205 32.5704 47.9395 35.082 49.5775 36.8656C51.2519 38.6128 53.3449 39.4864 55.8565 39.4864ZM83.8496 18.7384C84.9052 17.3552 86.343 16.1904 88.163 15.244C89.983 14.2976 92.0396 13.8244 94.3328 13.8244C96.9536 13.8244 99.3378 14.4796 101.485 15.79C103.669 17.064 105.38 18.8658 106.618 21.1954C107.855 23.525 108.474 26.2004 108.474 29.2216C108.474 32.2428 107.855 34.9546 106.618 37.357C105.38 39.723 103.669 41.5794 101.485 42.9262C99.3378 44.2366 96.9536 44.8918 94.3328 44.8918C92.0396 44.8918 90.0012 44.4368 88.2176 43.5268C86.434 42.5804 84.978 41.4156 83.8496 40.0324V58.7056H77.6252V14.3158H83.8496V18.7384ZM102.141 29.2216C102.141 27.1468 101.704 25.3632 100.83 23.8708C99.993 22.342 98.8646 21.1954 97.445 20.431C96.0618 19.6302 94.5694 19.2298 92.9678 19.2298C91.4026 19.2298 89.9102 19.6302 88.4906 20.431C87.1074 21.2318 85.979 22.3966 85.1054 23.9254C84.2682 25.4542 83.8496 27.256 83.8496 29.3308C83.8496 31.4056 84.2682 33.2256 85.1054 34.7908C85.979 36.3196 87.1074 37.4844 88.4906 38.2852C89.9102 39.086 91.4026 39.4864 92.9678 39.4864C94.5694 39.4864 96.0618 39.086 97.445 38.2852C98.8646 37.448 99.993 36.2468 100.83 34.6816C101.704 33.1164 102.141 31.2964 102.141 29.2216ZM120.854 18.7384C121.91 17.3552 123.347 16.1904 125.167 15.244C126.987 14.2976 129.044 13.8244 131.337 13.8244C133.958 13.8244 136.342 14.4796 138.49 15.79C140.674 17.064 142.385 18.8658 143.622 21.1954C144.86 23.525 145.479 26.2004 145.479 29.2216C145.479 32.2428 144.86 34.9546 143.622 37.357C142.385 39.723 140.674 41.5794 138.49 42.9262C136.342 44.2366 133.958 44.8918 131.337 44.8918C129.044 44.8918 127.006 44.4368 125.222 43.5268C123.438 42.5804 121.982 41.4156 120.854 40.0324V58.7056H114.63V14.3158H120.854V18.7384ZM139.145 29.2216C139.145 27.1468 138.708 25.3632 137.835 23.8708C136.997 22.342 135.869 21.1954 134.449 20.431C133.066 19.6302 131.574 19.2298 129.972 19.2298C128.407 19.2298 126.915 19.6302 125.495 20.431C124.112 21.2318 122.983 22.3966 122.11 23.9254C121.273 25.4542 120.854 27.256 120.854 29.3308C120.854 31.4056 121.273 33.2256 122.11 34.7908C122.983 36.3196 124.112 37.4844 125.495 38.2852C126.915 39.086 128.407 39.4864 129.972 39.4864C131.574 39.4864 133.066 39.086 134.449 38.2852C135.869 37.448 136.997 36.2468 137.835 34.6816C138.708 33.1164 139.145 31.2964 139.145 29.2216ZM154.801 10.33C153.672 10.33 152.726 9.94779 151.961 9.18338C151.197 8.41899 150.815 7.47259 150.815 6.34418C150.815 5.21578 151.197 4.26938 151.961 3.50499C152.726 2.74058 153.672 2.35838 154.801 2.35838C155.893 2.35838 156.821 2.74058 157.585 3.50499C158.35 4.26938 158.732 5.21578 158.732 6.34418C158.732 7.47259 158.35 8.41899 157.585 9.18338C156.821 9.94779 155.893 10.33 154.801 10.33ZM157.858 14.3158V44.4004H151.634V14.3158H157.858ZM181.209 13.8244C183.575 13.8244 185.686 14.3158 187.543 15.2986C189.436 16.2814 190.91 17.7374 191.965 19.6666C193.021 21.5958 193.549 23.9254 193.549 26.6554V44.4004H187.379V27.5836C187.379 24.89 186.706 22.8334 185.359 21.4138C184.012 19.9578 182.174 19.2298 179.844 19.2298C177.515 19.2298 175.658 19.9578 174.275 21.4138C172.928 22.8334 172.255 24.89 172.255 27.5836V44.4004H166.03V14.3158H172.255V17.7556C173.274 16.518 174.566 15.5534 176.131 14.8618C177.733 14.1702 179.426 13.8244 181.209 13.8244ZM212.408 44.8918C210.042 44.8918 207.913 44.4732 206.02 43.636C204.164 42.7624 202.69 41.5976 201.598 40.1416C200.506 38.6492 199.923 36.993 199.85 35.173H206.293C206.402 36.447 207.003 37.5208 208.095 38.3944C209.223 39.2316 210.625 39.6502 212.299 39.6502C214.046 39.6502 215.393 39.3226 216.34 38.6674C217.322 37.9758 217.814 37.1022 217.814 36.0466C217.814 34.9182 217.268 34.081 216.176 33.535C215.12 32.989 213.428 32.3884 211.098 31.7332C208.841 31.1144 207.003 30.5138 205.583 29.9314C204.164 29.349 202.926 28.4572 201.871 27.256C200.851 26.0548 200.342 24.4714 200.342 22.5058C200.342 20.9042 200.815 19.4482 201.761 18.1378C202.708 16.791 204.055 15.7354 205.802 14.971C207.585 14.2066 209.624 13.8244 211.917 13.8244C215.339 13.8244 218.087 14.698 220.162 16.4452C222.273 18.156 223.401 20.5038 223.547 23.4886H217.322C217.213 22.1418 216.667 21.068 215.684 20.2672C214.702 19.4664 213.373 19.066 211.699 19.066C210.061 19.066 208.805 19.3754 207.931 19.9942C207.058 20.613 206.621 21.432 206.621 22.4512C206.621 23.252 206.912 23.9254 207.494 24.4714C208.077 25.0174 208.787 25.4542 209.624 25.7818C210.461 26.073 211.699 26.4552 213.337 26.9284C215.521 27.5108 217.304 28.1114 218.687 28.7302C220.107 29.3126 221.326 30.1862 222.346 31.351C223.365 32.5158 223.893 34.0628 223.929 35.992C223.929 37.7028 223.456 39.2316 222.509 40.5784C221.563 41.9252 220.216 42.9808 218.469 43.7452C216.758 44.5096 214.738 44.8918 212.408 44.8918ZM281.256 13.8244C283.622 13.8244 285.733 14.3158 287.59 15.2986C289.482 16.2814 290.957 17.7374 292.012 19.6666C293.104 21.5958 293.65 23.9254 293.65 26.6554V44.4004H287.48V27.5836C287.48 24.89 286.807 22.8334 285.46 21.4138C284.113 19.9578 282.275 19.2298 279.946 19.2298C277.616 19.2298 275.76 19.9578 274.376 21.4138C273.03 22.8334 272.356 24.89 272.356 27.5836V44.4004H266.186V27.5836C266.186 24.89 265.513 22.8334 264.166 21.4138C262.819 19.9578 260.981 19.2298 258.652 19.2298C256.322 19.2298 254.466 19.9578 253.082 21.4138C251.736 22.8334 251.062 24.89 251.062 27.5836V44.4004H244.838V14.3158H251.062V17.7556C252.081 16.518 253.374 15.5534 254.939 14.8618C256.504 14.1702 258.178 13.8244 259.962 13.8244C262.364 13.8244 264.512 14.334 266.405 15.3532C268.298 16.3724 269.754 17.8466 270.773 19.7758C271.683 17.9558 273.102 16.518 275.032 15.4624C276.961 14.3704 279.036 13.8244 281.256 13.8244ZM329.144 28.621C329.144 29.7494 329.071 30.7686 328.925 31.6786H305.939C306.121 34.081 307.012 36.0102 308.614 37.4662C310.216 38.9222 312.181 39.6502 314.511 39.6502C317.86 39.6502 320.226 38.2488 321.609 35.446H328.325C327.415 38.2124 325.758 40.4874 323.356 42.271C320.99 44.0182 318.042 44.8918 314.511 44.8918C311.635 44.8918 309.051 44.2548 306.758 42.9808C304.501 41.6704 302.717 39.8504 301.407 37.5208C300.133 35.1548 299.496 32.4248 299.496 29.3308C299.496 26.2368 300.115 23.525 301.352 21.1954C302.626 18.8294 304.392 17.0094 306.648 15.7354C308.942 14.4614 311.562 13.8244 314.511 13.8244C317.35 13.8244 319.88 14.4432 322.1 15.6808C324.321 16.9184 326.05 18.6656 327.287 20.9224C328.525 23.1428 329.144 25.709 329.144 28.621ZM322.646 26.6554C322.61 24.3622 321.791 22.524 320.189 21.1408C318.588 19.7576 316.604 19.066 314.238 19.066C312.09 19.066 310.252 19.7576 308.723 21.1408C307.194 22.4876 306.284 24.3258 305.993 26.6554H322.646ZM333.194 29.2216C333.194 26.2004 333.813 23.525 335.051 21.1954C336.325 18.8658 338.035 17.064 340.183 15.79C342.367 14.4796 344.788 13.8244 347.445 13.8244C349.41 13.8244 351.34 14.2612 353.232 15.1348C355.162 15.972 356.69 17.1004 357.819 18.52V3.99639H364.098V44.4004H357.819V39.8686C356.8 41.3246 355.38 42.5258 353.56 43.4722C351.776 44.4186 349.72 44.8918 347.39 44.8918C344.769 44.8918 342.367 44.2366 340.183 42.9262C338.035 41.5794 336.325 39.723 335.051 37.357C333.813 34.9546 333.194 32.2428 333.194 29.2216ZM357.819 29.3308C357.819 27.256 357.382 25.4542 356.508 23.9254C355.671 22.3966 354.561 21.2318 353.178 20.431C351.795 19.6302 350.302 19.2298 348.701 19.2298C347.099 19.2298 345.607 19.6302 344.223 20.431C342.84 21.1954 341.712 22.342 340.838 23.8708C340.001 25.3632 339.582 27.1468 339.582 29.2216C339.582 31.2964 340.001 33.1164 340.838 34.6816C341.712 36.2468 342.84 37.448 344.223 38.2852C345.643 39.086 347.135 39.4864 348.701 39.4864C350.302 39.4864 351.795 39.086 353.178 38.2852C354.561 37.4844 355.671 36.3196 356.508 34.7908C357.382 33.2256 357.819 31.4056 357.819 29.3308ZM375.44 10.33C374.312 10.33 373.365 9.94779 372.601 9.18338C371.837 8.41899 371.454 7.47259 371.454 6.34418C371.454 5.21578 371.837 4.26938 372.601 3.50499C373.365 2.74058 374.312 2.35838 375.44 2.35838C376.532 2.35838 377.46 2.74058 378.225 3.50499C378.989 4.26938 379.371 5.21578 379.371 6.34418C379.371 7.47259 378.989 8.41899 378.225 9.18338C377.46 9.94779 376.532 10.33 375.44 10.33ZM378.498 14.3158V44.4004H372.273V14.3158H378.498ZM413.915 14.3158V44.4004H407.691V40.8514C406.708 42.089 405.416 43.0718 403.814 43.7998C402.249 44.4914 400.575 44.8372 398.791 44.8372C396.425 44.8372 394.296 44.3458 392.403 43.363C390.546 42.3802 389.072 40.9242 387.98 38.995C386.925 37.0658 386.397 34.7362 386.397 32.0062V14.3158H392.567V31.078C392.567 33.7716 393.24 35.8464 394.587 37.3024C395.934 38.722 397.772 39.4318 400.101 39.4318C402.431 39.4318 404.269 38.722 405.616 37.3024C406.999 35.8464 407.691 33.7716 407.691 31.078V14.3158H413.915ZM458.546 13.8244C460.912 13.8244 463.023 14.3158 464.88 15.2986C466.772 16.2814 468.247 17.7374 469.302 19.6666C470.394 21.5958 470.94 23.9254 470.94 26.6554V44.4004H464.77V27.5836C464.77 24.89 464.097 22.8334 462.75 21.4138C461.403 19.9578 459.565 19.2298 457.236 19.2298C454.906 19.2298 453.05 19.9578 451.666 21.4138C450.32 22.8334 449.646 24.89 449.646 27.5836V44.4004H443.476V27.5836C443.476 24.89 442.803 22.8334 441.456 21.4138C440.109 19.9578 438.271 19.2298 435.942 19.2298C433.612 19.2298 431.756 19.9578 430.372 21.4138C429.026 22.8334 428.352 24.89 428.352 27.5836V44.4004H422.128V14.3158H428.352V17.7556C429.371 16.518 430.664 15.5534 432.229 14.8618C433.794 14.1702 435.468 13.8244 437.252 13.8244C439.654 13.8244 441.802 14.334 443.695 15.3532C445.588 16.3724 447.044 17.8466 448.063 19.7758C448.973 17.9558 450.392 16.518 452.322 15.4624C454.251 14.3704 456.326 13.8244 458.546 13.8244Z" fill="black"/>
<path d="M23.244 100.72L17.004 89.8782H13.611V100.72H9.16499V73.6152H18.525C20.605 73.6152 22.36 73.9792 23.79 74.7072C25.246 75.4352 26.325 76.4102 27.027 77.6322C27.755 78.8542 28.119 80.2192 28.119 81.7272C28.119 83.4952 27.599 85.1072 26.559 86.5632C25.545 87.9932 23.972 88.9682 21.84 89.4882L28.548 100.72H23.244ZM13.611 86.3292H18.525C20.189 86.3292 21.437 85.9132 22.269 85.0812C23.127 84.2492 23.556 83.1312 23.556 81.7272C23.556 80.3232 23.14 79.2312 22.308 78.4512C21.476 77.6452 20.215 77.2422 18.525 77.2422H13.611V86.3292ZM43.1276 101.071C41.0996 101.071 39.2666 100.616 37.6286 99.7062C35.9906 98.7702 34.7036 97.4702 33.7676 95.8062C32.8316 94.1162 32.3636 92.1662 32.3636 89.9562C32.3636 87.7722 32.8446 85.8352 33.8066 84.1452C34.7686 82.4552 36.0816 81.1552 37.7456 80.2452C39.4096 79.3352 41.2686 78.8802 43.3226 78.8802C45.3766 78.8802 47.2356 79.3352 48.8996 80.2452C50.5636 81.1552 51.8766 82.4552 52.8386 84.1452C53.8006 85.8352 54.2816 87.7722 54.2816 89.9562C54.2816 92.1402 53.7876 94.0772 52.7996 95.7672C51.8116 97.4572 50.4596 98.7702 48.7436 99.7062C47.0536 100.616 45.1816 101.071 43.1276 101.071ZM43.1276 97.2102C44.2716 97.2102 45.3376 96.9372 46.3256 96.3912C47.3396 95.8452 48.1586 95.0262 48.7826 93.9342C49.4066 92.8422 49.7186 91.5162 49.7186 89.9562C49.7186 88.3962 49.4196 87.0832 48.8216 86.0172C48.2236 84.9252 47.4306 84.1062 46.4426 83.5602C45.4546 83.0142 44.3886 82.7412 43.2446 82.7412C42.1006 82.7412 41.0346 83.0142 40.0466 83.5602C39.0846 84.1062 38.3176 84.9252 37.7456 86.0172C37.1736 87.0832 36.8876 88.3962 36.8876 89.9562C36.8876 92.2702 37.4726 94.0642 38.6426 95.3382C39.8386 96.5862 41.3336 97.2102 43.1276 97.2102ZM63.1227 82.4292C63.8767 81.3892 64.9037 80.5442 66.2037 79.8942C67.5297 79.2182 68.9987 78.8802 70.6107 78.8802C72.5087 78.8802 74.2247 79.3352 75.7587 80.2452C77.2927 81.1552 78.5017 82.4552 79.3857 84.1452C80.2697 85.8092 80.7117 87.7202 80.7117 89.8782C80.7117 92.0362 80.2697 93.9732 79.3857 95.6892C78.5017 97.3792 77.2797 98.7052 75.7197 99.6672C74.1857 100.603 72.4827 101.071 70.6107 101.071C68.9467 101.071 67.4647 100.746 66.1647 100.096C64.8907 99.4462 63.8767 98.6142 63.1227 97.6002V100.72H58.6767V71.8602H63.1227V82.4292ZM76.1877 89.8782C76.1877 88.3962 75.8757 87.1222 75.2517 86.0562C74.6537 84.9642 73.8477 84.1452 72.8337 83.5992C71.8457 83.0272 70.7797 82.7412 69.6357 82.7412C68.5177 82.7412 67.4517 83.0272 66.4377 83.5992C65.4497 84.1712 64.6437 85.0032 64.0197 86.0952C63.4217 87.1872 63.1227 88.4742 63.1227 89.9562C63.1227 91.4382 63.4217 92.7382 64.0197 93.8562C64.6437 94.9482 65.4497 95.7802 66.4377 96.3522C67.4517 96.9242 68.5177 97.2102 69.6357 97.2102C70.7797 97.2102 71.8457 96.9242 72.8337 96.3522C73.8477 95.7542 74.6537 94.8962 75.2517 93.7782C75.8757 92.6602 76.1877 91.3602 76.1877 89.8782ZM94.4294 101.071C92.4014 101.071 90.5684 100.616 88.9303 99.7062C87.2923 98.7702 86.0053 97.4702 85.0693 95.8062C84.1333 94.1162 83.6653 92.1662 83.6653 89.9562C83.6653 87.7722 84.1463 85.8352 85.1083 84.1452C86.0703 82.4552 87.3833 81.1552 89.0474 80.2452C90.7114 79.3352 92.5703 78.8802 94.6243 78.8802C96.6784 78.8802 98.5374 79.3352 100.201 80.2452C101.865 81.1552 103.178 82.4552 104.14 84.1452C105.102 85.8352 105.583 87.7722 105.583 89.9562C105.583 92.1402 105.089 94.0772 104.101 95.7672C103.113 97.4572 101.761 98.7702 100.045 99.7062C98.3554 100.616 96.4833 101.071 94.4294 101.071ZM94.4294 97.2102C95.5734 97.2102 96.6394 96.9372 97.6274 96.3912C98.6414 95.8452 99.4604 95.0262 100.084 93.9342C100.708 92.8422 101.02 91.5162 101.02 89.9562C101.02 88.3962 100.721 87.0832 100.123 86.0172C99.5253 84.9252 98.7324 84.1062 97.7444 83.5602C96.7564 83.0142 95.6904 82.7412 94.5463 82.7412C93.4023 82.7412 92.3363 83.0142 91.3484 83.5602C90.3864 84.1062 89.6194 84.9252 89.0474 86.0172C88.4754 87.0832 88.1894 88.3962 88.1894 89.9562C88.1894 92.2702 88.7744 94.0642 89.9444 95.3382C91.1403 96.5862 92.6353 97.2102 94.4294 97.2102ZM115.165 82.8582V94.7532C115.165 95.5592 115.347 96.1442 115.711 96.5082C116.101 96.8462 116.751 97.0152 117.661 97.0152H120.391V100.72H116.881C114.879 100.72 113.345 100.252 112.279 99.3162C111.213 98.3802 110.68 96.8592 110.68 94.7532V82.8582H108.145V79.2312H110.68V73.8882H115.165V79.2312H120.391V82.8582H115.165ZM133.81 101.071C131.782 101.071 129.949 100.616 128.311 99.7062C126.673 98.7702 125.386 97.4702 124.45 95.8062C123.514 94.1162 123.046 92.1662 123.046 89.9562C123.046 87.7722 123.527 85.8352 124.489 84.1452C125.451 82.4552 126.764 81.1552 128.428 80.2452C130.092 79.3352 131.951 78.8802 134.005 78.8802C136.059 78.8802 137.918 79.3352 139.582 80.2452C141.246 81.1552 142.559 82.4552 143.521 84.1452C144.483 85.8352 144.964 87.7722 144.964 89.9562C144.964 92.1402 144.47 94.0772 143.482 95.7672C142.494 97.4572 141.142 98.7702 139.426 99.7062C137.736 100.616 135.864 101.071 133.81 101.071ZM133.81 97.2102C134.954 97.2102 136.02 96.9372 137.008 96.3912C138.022 95.8452 138.841 95.0262 139.465 93.9342C140.089 92.8422 140.401 91.5162 140.401 89.9562C140.401 88.3962 140.102 87.0832 139.504 86.0172C138.906 84.9252 138.113 84.1062 137.125 83.5602C136.137 83.0142 135.071 82.7412 133.927 82.7412C132.783 82.7412 131.717 83.0142 130.729 83.5602C129.767 84.1062 129 84.9252 128.428 86.0172C127.856 87.0832 127.57 88.3962 127.57 89.9562C127.57 92.2702 128.155 94.0642 129.325 95.3382C130.521 96.5862 132.016 97.2102 133.81 97.2102ZM185.503 78.8802C187.193 78.8802 188.701 79.2312 190.027 79.9332C191.379 80.6352 192.432 81.6752 193.186 83.0532C193.966 84.4312 194.356 86.0952 194.356 88.0452V100.72H189.949V88.7082C189.949 86.7842 189.468 85.3152 188.506 84.3012C187.544 83.2612 186.231 82.7412 184.567 82.7412C182.903 82.7412 181.577 83.2612 180.589 84.3012C179.627 85.3152 179.146 86.7842 179.146 88.7082V100.72H174.739V88.7082C174.739 86.7842 174.258 85.3152 173.296 84.3012C172.334 83.2612 171.021 82.7412 169.357 82.7412C167.693 82.7412 166.367 83.2612 165.379 84.3012C164.417 85.3152 163.936 86.7842 163.936 88.7082V100.72H159.49V79.2312H163.936V81.6882C164.664 80.8042 165.587 80.1152 166.705 79.6212C167.823 79.1272 169.019 78.8802 170.293 78.8802C172.009 78.8802 173.543 79.2442 174.895 79.9722C176.247 80.7002 177.287 81.7532 178.015 83.1312C178.665 81.8312 179.679 80.8042 181.057 80.0502C182.435 79.2702 183.917 78.8802 185.503 78.8802ZM219.709 89.4492C219.709 90.2552 219.657 90.9832 219.553 91.6332H203.134C203.264 93.3492 203.901 94.7272 205.045 95.7672C206.189 96.8072 207.593 97.3272 209.257 97.3272C211.649 97.3272 213.339 96.3262 214.327 94.3242H219.124C218.474 96.3002 217.291 97.9252 215.575 99.1992C213.885 100.447 211.779 101.071 209.257 101.071C207.203 101.071 205.357 100.616 203.719 99.7062C202.107 98.7702 200.833 97.4702 199.897 95.8062C198.987 94.1162 198.532 92.1662 198.532 89.9562C198.532 87.7462 198.974 85.8092 199.858 84.1452C200.768 82.4552 202.029 81.1552 203.641 80.2452C205.279 79.3352 207.151 78.8802 209.257 78.8802C211.285 78.8802 213.092 79.3222 214.678 80.2062C216.264 81.0902 217.499 82.3382 218.383 83.9502C219.267 85.5362 219.709 87.3692 219.709 89.4492ZM215.068 88.0452C215.042 86.4072 214.457 85.0942 213.313 84.1062C212.169 83.1182 210.752 82.6242 209.062 82.6242C207.528 82.6242 206.215 83.1182 205.123 84.1062C204.031 85.0682 203.381 86.3812 203.173 88.0452H215.068ZM222.602 89.8782C222.602 87.7202 223.044 85.8092 223.928 84.1452C224.838 82.4812 226.06 81.1942 227.594 80.2842C229.154 79.3482 230.883 78.8802 232.781 78.8802C234.185 78.8802 235.563 79.1922 236.915 79.8162C238.293 80.4142 239.385 81.2202 240.191 82.2342V71.8602H244.676V100.72H240.191V97.4832C239.463 98.5232 238.449 99.3812 237.149 100.057C235.875 100.733 234.406 101.071 232.742 101.071C230.87 101.071 229.154 100.603 227.594 99.6672C226.06 98.7052 224.838 97.3792 223.928 95.6892C223.044 93.9732 222.602 92.0362 222.602 89.8782ZM240.191 89.9562C240.191 88.4742 239.879 87.1872 239.255 86.0952C238.657 85.0032 237.864 84.1712 236.876 83.5992C235.888 83.0272 234.822 82.7412 233.678 82.7412C232.534 82.7412 231.468 83.0272 230.48 83.5992C229.492 84.1452 228.686 84.9642 228.062 86.0562C227.464 87.1222 227.165 88.3962 227.165 89.8782C227.165 91.3602 227.464 92.6602 228.062 93.7782C228.686 94.8962 229.492 95.7542 230.48 96.3522C231.494 96.9242 232.56 97.2102 233.678 97.2102C234.822 97.2102 235.888 96.9242 236.876 96.3522C237.864 95.7802 238.657 94.9482 239.255 93.8562C239.879 92.7382 240.191 91.4382 240.191 89.9562ZM252.778 76.3842C251.972 76.3842 251.296 76.1112 250.75 75.5652C250.204 75.0192 249.931 74.3432 249.931 73.5372C249.931 72.7312 250.204 72.0552 250.75 71.5092C251.296 70.9632 251.972 70.6902 252.778 70.6902C253.558 70.6902 254.221 70.9632 254.767 71.5092C255.313 72.0552 255.586 72.7312 255.586 73.5372C255.586 74.3432 255.313 75.0192 254.767 75.5652C254.221 76.1112 253.558 76.3842 252.778 76.3842ZM254.962 79.2312V100.72H250.516V79.2312H254.962ZM280.26 79.2312V100.72H275.814V98.1852C275.112 99.0692 274.189 99.7712 273.045 100.291C271.927 100.785 270.731 101.032 269.457 101.032C267.767 101.032 266.246 100.681 264.894 99.9792C263.568 99.2772 262.515 98.2372 261.735 96.8592C260.981 95.4812 260.604 93.8172 260.604 91.8672V79.2312H265.011V91.2042C265.011 93.1282 265.492 94.6102 266.454 95.6502C267.416 96.6642 268.729 97.1712 270.393 97.1712C272.057 97.1712 273.37 96.6642 274.332 95.6502C275.32 94.6102 275.814 93.1282 275.814 91.2042V79.2312H280.26ZM312.139 78.8802C313.829 78.8802 315.337 79.2312 316.663 79.9332C318.015 80.6352 319.068 81.6752 319.822 83.0532C320.602 84.4312 320.992 86.0952 320.992 88.0452V100.72H316.585V88.7082C316.585 86.7842 316.104 85.3152 315.142 84.3012C314.18 83.2612 312.867 82.7412 311.203 82.7412C309.539 82.7412 308.213 83.2612 307.225 84.3012C306.263 85.3152 305.782 86.7842 305.782 88.7082V100.72H301.375V88.7082C301.375 86.7842 300.894 85.3152 299.932 84.3012C298.97 83.2612 297.657 82.7412 295.993 82.7412C294.329 82.7412 293.003 83.2612 292.015 84.3012C291.053 85.3152 290.572 86.7842 290.572 88.7082V100.72H286.126V79.2312H290.572V81.6882C291.3 80.8042 292.223 80.1152 293.341 79.6212C294.459 79.1272 295.655 78.8802 296.929 78.8802C298.645 78.8802 300.179 79.2442 301.531 79.9722C302.883 80.7002 303.923 81.7532 304.651 83.1312C305.301 81.8312 306.315 80.8042 307.693 80.0502C309.071 79.2702 310.553 78.8802 312.139 78.8802Z" fill="black"/>
<rect x="6.23999" y="163.8" width="227.76" height="49.92" fill="#FDAF5C"/>
<rect x="246.48" y="163.8" width="227.76" height="49.92" fill="#FF8000"/>
<rect x="6.23999" y="229.32" width="468" height="49.92" fill="url(#paint0_linear_166_1787)"/>
<path d="M89.608 194.4L91.4694 183.055H92.7989L90.9376 194.4H89.608ZM84.4727 191.365L84.6887 190.035H93.2864L93.0704 191.365H84.4727ZM85.6194 194.4L87.4808 183.055H88.8103L86.9489 194.4H85.6194ZM85.1319 187.42L85.3479 186.091H93.9457L93.7296 187.42H85.1319ZM95.4193 194.4V183.055H102.455V184.529H97.131V187.985H101.951V189.453H97.131V194.4H95.4193ZM108.233 194.4H104.56V183.055H108.349C109.461 183.055 110.415 183.282 111.213 183.736C112.011 184.187 112.622 184.835 113.047 185.681C113.475 186.523 113.689 187.533 113.689 188.711C113.689 189.893 113.473 190.908 113.041 191.758C112.613 192.607 111.992 193.261 111.18 193.719C110.367 194.173 109.385 194.4 108.233 194.4ZM106.272 192.905H108.139C109.003 192.905 109.721 192.742 110.294 192.417C110.866 192.088 111.294 191.614 111.579 190.993C111.863 190.369 112.005 189.608 112.005 188.711C112.005 187.821 111.863 187.066 111.579 186.445C111.298 185.825 110.879 185.354 110.321 185.033C109.764 184.711 109.071 184.551 108.244 184.551H106.272V192.905ZM116.213 194.4H114.396L118.479 183.055H120.456L124.539 194.4H122.722L119.514 185.116H119.426L116.213 194.4ZM116.517 189.957H122.412V191.398H116.517V189.957ZM126.177 194.4V183.055H133.213V184.529H127.889V187.985H132.709V189.453H127.889V194.4H126.177ZM138.908 194.556C138.214 194.556 137.589 194.423 137.035 194.157C136.485 193.887 136.046 193.518 135.717 193.049C135.388 192.58 135.213 192.044 135.191 191.442H136.853C136.893 191.93 137.109 192.33 137.501 192.644C137.892 192.958 138.361 193.115 138.908 193.115C139.344 193.115 139.73 193.015 140.066 192.816C140.405 192.613 140.671 192.334 140.863 191.98C141.059 191.625 141.157 191.221 141.157 190.766C141.157 190.305 141.057 189.893 140.858 189.531C140.658 189.169 140.383 188.885 140.032 188.678C139.685 188.471 139.286 188.366 138.836 188.362C138.492 188.362 138.147 188.421 137.8 188.539C137.453 188.657 137.172 188.813 136.958 189.005L135.39 188.772L136.027 183.055H142.265V184.523H137.451L137.091 187.697H137.157C137.379 187.483 137.672 187.304 138.038 187.16C138.407 187.016 138.803 186.944 139.224 186.944C139.914 186.944 140.529 187.108 141.068 187.437C141.611 187.766 142.038 188.214 142.348 188.783C142.662 189.348 142.817 189.998 142.813 190.733C142.817 191.468 142.651 192.124 142.315 192.7C141.982 193.276 141.521 193.73 140.93 194.062C140.343 194.391 139.669 194.556 138.908 194.556ZM154.415 186.744H152.687C152.62 186.375 152.496 186.05 152.315 185.769C152.135 185.489 151.913 185.251 151.651 185.055C151.389 184.859 151.095 184.711 150.77 184.612C150.449 184.512 150.107 184.462 149.745 184.462C149.091 184.462 148.506 184.626 147.989 184.955C147.476 185.284 147.069 185.766 146.77 186.401C146.475 187.036 146.327 187.812 146.327 188.728C146.327 189.651 146.475 190.43 146.77 191.065C147.069 191.701 147.477 192.181 147.994 192.506C148.512 192.831 149.093 192.993 149.739 192.993C150.098 192.993 150.438 192.945 150.759 192.849C151.084 192.75 151.377 192.604 151.64 192.412C151.902 192.22 152.123 191.985 152.304 191.708C152.489 191.427 152.616 191.106 152.687 190.744L154.415 190.75C154.323 191.307 154.144 191.821 153.878 192.29C153.615 192.755 153.278 193.158 152.864 193.497C152.454 193.833 151.985 194.094 151.457 194.279C150.929 194.463 150.353 194.556 149.728 194.556C148.746 194.556 147.871 194.323 147.103 193.857C146.334 193.388 145.729 192.718 145.286 191.847C144.846 190.975 144.626 189.935 144.626 188.728C144.626 187.516 144.848 186.477 145.291 185.609C145.734 184.737 146.34 184.069 147.108 183.603C147.876 183.134 148.75 182.9 149.728 182.9C150.33 182.9 150.892 182.987 151.413 183.16C151.937 183.33 152.408 183.581 152.825 183.914C153.242 184.242 153.588 184.645 153.861 185.121C154.134 185.594 154.319 186.135 154.415 186.744Z" fill="white"/>
<path d="M331.408 194.4L333.269 183.055H334.599L332.738 194.4H331.408ZM326.273 191.365L326.489 190.035H335.086L334.87 191.365H326.273ZM327.419 194.4L329.281 183.055H330.61L328.749 194.4H327.419ZM326.932 187.42L327.148 186.091H335.746L335.53 187.42H326.932ZM337.219 194.4V183.055H344.255V184.529H338.931V187.985H343.751V189.453H338.931V194.4H337.219ZM346.36 194.4V183.055H353.395V184.529H348.072V187.985H352.891V189.453H348.072V194.4H346.36ZM359.179 194.556C358.385 194.556 357.683 194.419 357.074 194.146C356.468 193.872 355.994 193.496 355.65 193.015C355.307 192.535 355.137 191.989 355.14 191.376C355.137 190.896 355.235 190.454 355.434 190.052C355.637 189.645 355.912 189.307 356.26 189.038C356.607 188.765 356.994 188.591 357.423 188.517V188.451C356.858 188.314 356.405 188.011 356.066 187.542C355.726 187.073 355.558 186.534 355.561 185.925C355.558 185.345 355.711 184.828 356.021 184.373C356.335 183.915 356.765 183.555 357.312 183.293C357.859 183.031 358.481 182.9 359.179 182.9C359.87 182.9 360.486 183.033 361.029 183.299C361.576 183.561 362.006 183.921 362.32 184.379C362.634 184.833 362.793 185.348 362.796 185.925C362.793 186.534 362.619 187.073 362.276 187.542C361.932 188.011 361.485 188.314 360.935 188.451V188.517C361.36 188.591 361.742 188.765 362.082 189.038C362.425 189.307 362.699 189.645 362.902 190.052C363.109 190.454 363.214 190.896 363.217 191.376C363.214 191.989 363.04 192.535 362.697 193.015C362.353 193.496 361.877 193.872 361.267 194.146C360.662 194.419 359.966 194.556 359.179 194.556ZM359.179 193.154C359.648 193.154 360.054 193.076 360.398 192.921C360.741 192.762 361.007 192.543 361.195 192.262C361.384 191.978 361.48 191.645 361.484 191.265C361.48 190.87 361.376 190.521 361.173 190.218C360.974 189.915 360.702 189.677 360.359 189.503C360.015 189.33 359.622 189.243 359.179 189.243C358.732 189.243 358.335 189.33 357.988 189.503C357.641 189.677 357.367 189.915 357.168 190.218C356.969 190.521 356.871 190.87 356.874 191.265C356.871 191.645 356.961 191.978 357.146 192.262C357.334 192.543 357.602 192.762 357.949 192.921C358.296 193.076 358.706 193.154 359.179 193.154ZM359.179 187.875C359.556 187.875 359.89 187.799 360.182 187.647C360.473 187.496 360.702 187.285 360.869 187.016C361.038 186.746 361.125 186.431 361.129 186.069C361.125 185.714 361.04 185.404 360.874 185.138C360.712 184.872 360.485 184.667 360.193 184.523C359.901 184.375 359.563 184.301 359.179 184.301C358.787 184.301 358.444 184.375 358.149 184.523C357.857 184.667 357.63 184.872 357.467 185.138C357.305 185.404 357.225 185.714 357.229 186.069C357.225 186.431 357.307 186.746 357.473 187.016C357.639 187.285 357.868 187.496 358.16 187.647C358.455 187.799 358.795 187.875 359.179 187.875ZM369.152 194.589C368.277 194.585 367.529 194.354 366.908 193.896C366.288 193.438 365.813 192.772 365.485 191.896C365.156 191.021 364.992 189.967 364.992 188.733C364.992 187.503 365.156 186.453 365.485 185.581C365.817 184.709 366.293 184.045 366.914 183.587C367.538 183.129 368.284 182.9 369.152 182.9C370.02 182.9 370.764 183.131 371.384 183.592C372.005 184.05 372.479 184.715 372.808 185.587C373.141 186.455 373.307 187.503 373.307 188.733C373.307 189.97 373.142 191.027 372.814 191.902C372.485 192.774 372.01 193.44 371.39 193.902C370.77 194.36 370.024 194.589 369.152 194.589ZM369.152 193.11C369.92 193.11 370.52 192.735 370.952 191.985C371.388 191.235 371.606 190.151 371.606 188.733C371.606 187.791 371.506 186.996 371.307 186.346C371.111 185.692 370.829 185.197 370.459 184.861C370.094 184.521 369.658 184.351 369.152 184.351C368.387 184.351 367.787 184.728 367.352 185.481C366.916 186.235 366.696 187.319 366.692 188.733C366.692 189.679 366.79 190.478 366.986 191.132C367.185 191.782 367.468 192.275 367.833 192.611C368.199 192.943 368.639 193.11 369.152 193.11ZM379.222 194.589C378.347 194.585 377.599 194.354 376.978 193.896C376.358 193.438 375.883 192.772 375.555 191.896C375.226 191.021 375.061 189.967 375.061 188.733C375.061 187.503 375.226 186.453 375.555 185.581C375.887 184.709 376.363 184.045 376.984 183.587C377.608 183.129 378.354 182.9 379.222 182.9C380.09 182.9 380.834 183.131 381.454 183.592C382.075 184.05 382.549 184.715 382.878 185.587C383.21 186.455 383.377 187.503 383.377 188.733C383.377 189.97 383.212 191.027 382.884 191.902C382.555 192.774 382.08 193.44 381.46 193.902C380.839 194.36 380.093 194.589 379.222 194.589ZM379.222 193.11C379.99 193.11 380.59 192.735 381.022 191.985C381.458 191.235 381.676 190.151 381.676 188.733C381.676 187.791 381.576 186.996 381.377 186.346C381.181 185.692 380.899 185.197 380.529 184.861C380.164 184.521 379.728 184.351 379.222 184.351C378.457 184.351 377.857 184.728 377.421 185.481C376.986 186.235 376.766 187.319 376.762 188.733C376.762 189.679 376.86 190.478 377.056 191.132C377.255 191.782 377.538 192.275 377.903 192.611C378.269 192.943 378.709 193.11 379.222 193.11ZM389.292 194.589C388.417 194.585 387.669 194.354 387.048 193.896C386.428 193.438 385.953 192.772 385.624 191.896C385.296 191.021 385.131 189.967 385.131 188.733C385.131 187.503 385.296 186.453 385.624 185.581C385.957 184.709 386.433 184.045 387.054 183.587C387.678 183.129 388.424 182.9 389.292 182.9C390.16 182.9 390.904 183.131 391.524 183.592C392.145 184.05 392.619 184.715 392.948 185.587C393.28 186.455 393.447 187.503 393.447 188.733C393.447 189.97 393.282 191.027 392.954 191.902C392.625 192.774 392.15 193.44 391.53 193.902C390.909 194.36 390.163 194.589 389.292 194.589ZM389.292 193.11C390.06 193.11 390.66 192.735 391.092 191.985C391.528 191.235 391.746 190.151 391.746 188.733C391.746 187.791 391.646 186.996 391.447 186.346C391.251 185.692 390.968 185.197 390.599 184.861C390.234 184.521 389.798 184.351 389.292 184.351C388.527 184.351 387.927 184.728 387.491 185.481C387.056 186.235 386.836 187.319 386.832 188.733C386.832 189.679 386.93 190.478 387.126 191.132C387.325 191.782 387.608 192.275 387.973 192.611C388.339 192.943 388.778 193.11 389.292 193.11Z" fill="white"/>
<rect x="6.23999" y="288.6" width="149.76" height="53.04" fill="#A1A1A1"/>
<rect x="165.36" y="288.6" width="149.76" height="53.04" fill="#D9D9D9"/>
<rect x="324.48" y="288.6" width="149.76" height="53.04" fill="#F6F6F6"/>
</g>
<defs>
<linearGradient id="paint0_linear_166_1787" x1="6.23999" y1="229.32" x2="474.24" y2="229.32" gradientUnits="userSpaceOnUse">
<stop stop-color="#FDAF5B"/>
<stop offset="1" stop-color="#FF8000"/>
</linearGradient>
<clipPath id="clip0_166_1787">
<rect width="480.48" height="347.88" fill="white"/>
</clipPath>
</defs>
</svg>
