<svg width="367" height="286" viewBox="0 0 367 286" fill="none" xmlns="http://www.w3.org/2000/svg">
<g filter="url(#filter0_d_133_1177)">
<rect x="6.80005" y="2.7998" width="347" height="266" rx="15" fill="white"/>
</g>
<path d="M134.831 171.675V172.104C134.831 172.695 134.754 173.225 134.6 173.694C134.446 174.163 134.226 174.563 133.939 174.892C133.656 175.222 133.316 175.474 132.919 175.649C132.521 175.821 132.081 175.907 131.597 175.907C131.118 175.907 130.679 175.821 130.281 175.649C129.888 175.474 129.546 175.222 129.256 174.892C128.966 174.563 128.74 174.163 128.579 173.694C128.421 173.225 128.343 172.695 128.343 172.104V171.675C128.343 171.084 128.421 170.556 128.579 170.09C128.736 169.621 128.958 169.222 129.245 168.893C129.535 168.56 129.877 168.307 130.271 168.135C130.668 167.96 131.107 167.872 131.587 167.872C132.07 167.872 132.51 167.96 132.908 168.135C133.305 168.307 133.647 168.56 133.934 168.893C134.22 169.222 134.441 169.621 134.594 170.09C134.752 170.556 134.831 171.084 134.831 171.675ZM133.483 172.104V171.664C133.483 171.227 133.44 170.842 133.354 170.509C133.271 170.173 133.148 169.892 132.983 169.666C132.822 169.437 132.623 169.265 132.387 169.15C132.151 169.032 131.884 168.973 131.587 168.973C131.289 168.973 131.024 169.032 130.792 169.15C130.559 169.265 130.36 169.437 130.196 169.666C130.034 169.892 129.911 170.173 129.825 170.509C129.739 170.842 129.696 171.227 129.696 171.664V172.104C129.696 172.541 129.739 172.928 129.825 173.265C129.911 173.601 130.036 173.886 130.201 174.119C130.369 174.348 130.57 174.521 130.802 174.64C131.035 174.754 131.3 174.812 131.597 174.812C131.898 174.812 132.165 174.754 132.398 174.64C132.63 174.521 132.827 174.348 132.989 174.119C133.15 173.886 133.271 173.601 133.354 173.265C133.44 172.928 133.483 172.541 133.483 172.104ZM139.149 172.883H137.114V171.814H139.149C139.504 171.814 139.79 171.757 140.009 171.643C140.227 171.528 140.386 171.37 140.487 171.17C140.59 170.966 140.642 170.733 140.642 170.472C140.642 170.225 140.59 169.994 140.487 169.779C140.386 169.56 140.227 169.385 140.009 169.252C139.79 169.12 139.504 169.054 139.149 169.054H137.527V175.8H136.179V167.979H139.149C139.754 167.979 140.268 168.087 140.691 168.302C141.117 168.513 141.441 168.807 141.663 169.183C141.885 169.555 141.996 169.981 141.996 170.461C141.996 170.966 141.885 171.399 141.663 171.761C141.441 172.122 141.117 172.4 140.691 172.593C140.268 172.787 139.754 172.883 139.149 172.883ZM148.323 174.731V175.8H144.171V174.731H148.323ZM144.552 167.979V175.8H143.204V167.979H144.552ZM147.781 171.245V172.298H144.171V171.245H147.781ZM148.296 167.979V169.054H144.171V167.979H148.296ZM155.628 167.979V175.8H154.28L150.772 170.198V175.8H149.424V167.979H150.772L154.29 173.592V167.979H155.628Z" fill="#7AC97A"/>
<rect x="19.8" y="16.7998" width="320" height="137" rx="15" fill="#C4C4C4"/>
<path d="M27.2766 172.558H24.3157V171.003H27.2766C27.7922 171.003 28.2089 170.92 28.5266 170.753C28.8443 170.586 29.0761 170.357 29.2219 170.065C29.373 169.769 29.4485 169.43 29.4485 169.05C29.4485 168.69 29.373 168.354 29.2219 168.042C29.0761 167.724 28.8443 167.469 28.5266 167.276C28.2089 167.084 27.7922 166.987 27.2766 166.987H24.9172V176.8H22.9563V165.425H27.2766C28.1568 165.425 28.9042 165.581 29.5188 165.894C30.1386 166.201 30.6099 166.628 30.9329 167.175C31.2558 167.716 31.4172 168.336 31.4172 169.034C31.4172 169.769 31.2558 170.399 30.9329 170.925C30.6099 171.451 30.1386 171.854 29.5188 172.136C28.9042 172.417 28.1568 172.558 27.2766 172.558ZM32.5188 172.667V172.487C32.5188 171.878 32.6073 171.313 32.7844 170.792C32.9615 170.266 33.2167 169.81 33.55 169.425C33.8886 169.034 34.3 168.732 34.7844 168.519C35.274 168.3 35.8261 168.19 36.4407 168.19C37.0605 168.19 37.6125 168.3 38.0969 168.519C38.5865 168.732 39.0006 169.034 39.3391 169.425C39.6777 169.81 39.9355 170.266 40.1125 170.792C40.2896 171.313 40.3782 171.878 40.3782 172.487V172.667C40.3782 173.276 40.2896 173.841 40.1125 174.362C39.9355 174.883 39.6777 175.339 39.3391 175.729C39.0006 176.115 38.5891 176.417 38.1047 176.636C37.6204 176.849 37.0709 176.956 36.4563 176.956C35.8365 176.956 35.2818 176.849 34.7922 176.636C34.3079 176.417 33.8964 176.115 33.5579 175.729C33.2193 175.339 32.9615 174.883 32.7844 174.362C32.6073 173.841 32.5188 173.276 32.5188 172.667ZM34.4016 172.487V172.667C34.4016 173.047 34.4407 173.407 34.5188 173.745C34.5969 174.084 34.7193 174.381 34.886 174.636C35.0527 174.891 35.2662 175.091 35.5266 175.237C35.787 175.383 36.0969 175.456 36.4563 175.456C36.8053 175.456 37.1073 175.383 37.3625 175.237C37.623 175.091 37.8365 174.891 38.0032 174.636C38.1698 174.381 38.2922 174.084 38.3704 173.745C38.4537 173.407 38.4954 173.047 38.4954 172.667V172.487C38.4954 172.112 38.4537 171.758 38.3704 171.425C38.2922 171.086 38.1672 170.787 37.9954 170.526C37.8287 170.266 37.6152 170.063 37.3547 169.917C37.0995 169.766 36.7948 169.69 36.4407 169.69C36.0865 169.69 35.7792 169.766 35.5188 169.917C35.2636 170.063 35.0527 170.266 34.886 170.526C34.7193 170.787 34.5969 171.086 34.5188 171.425C34.4407 171.758 34.4016 172.112 34.4016 172.487ZM44.2532 174.925L46.2063 168.347H47.4094L47.0813 170.315L45.1125 176.8H44.0344L44.2532 174.925ZM43.1047 168.347L44.6282 174.956L44.7532 176.8H43.55L41.261 168.347H43.1047ZM49.2375 174.878L50.7141 168.347H52.55L50.2688 176.8H49.0657L49.2375 174.878ZM47.6125 168.347L49.5422 174.847L49.7844 176.8H48.7063L46.7141 170.308L46.386 168.347H47.6125ZM57.5579 176.956C56.9329 176.956 56.3678 176.854 55.8625 176.651C55.3625 176.443 54.9355 176.154 54.5813 175.784C54.2323 175.414 53.9641 174.979 53.7766 174.479C53.5891 173.979 53.4954 173.44 53.4954 172.862V172.55C53.4954 171.888 53.5917 171.289 53.7844 170.753C53.9771 170.216 54.2454 169.758 54.5891 169.378C54.9329 168.993 55.3391 168.698 55.8079 168.495C56.2766 168.292 56.7844 168.19 57.3313 168.19C57.9355 168.19 58.4641 168.292 58.9172 168.495C59.3704 168.698 59.7454 168.985 60.0422 169.354C60.3443 169.719 60.5683 170.154 60.7141 170.659C60.8652 171.164 60.9407 171.722 60.9407 172.331V173.136H54.4094V171.784H59.0813V171.636C59.0709 171.297 59.0032 170.979 58.8782 170.683C58.7584 170.386 58.5735 170.146 58.3235 169.964C58.0735 169.782 57.7402 169.69 57.3235 169.69C57.011 169.69 56.7323 169.758 56.4875 169.894C56.248 170.024 56.0474 170.214 55.886 170.464C55.7245 170.714 55.5995 171.016 55.511 171.37C55.4277 171.719 55.386 172.112 55.386 172.55V172.862C55.386 173.232 55.4355 173.576 55.5344 173.894C55.6386 174.206 55.7896 174.479 55.9875 174.714C56.1855 174.948 56.425 175.133 56.7063 175.269C56.9875 175.399 57.3079 175.464 57.6672 175.464C58.1204 175.464 58.524 175.373 58.8782 175.19C59.2323 175.008 59.5396 174.75 59.8 174.417L60.7922 175.378C60.6099 175.644 60.373 175.899 60.0813 176.144C59.7896 176.383 59.4329 176.578 59.011 176.729C58.5943 176.881 58.1099 176.956 57.5579 176.956ZM64.425 164.8V176.8H62.5344V164.8H64.425ZM68.5032 164.8V176.8H66.6125V164.8H68.5032ZM81.8625 175.245V176.8H76.1516V175.245H81.8625ZM76.6985 165.425V176.8H74.7375V165.425H76.6985ZM85.2063 168.347V176.8H83.3157V168.347H85.2063ZM83.1907 166.128C83.1907 165.841 83.2844 165.604 83.4719 165.417C83.6646 165.224 83.9303 165.128 84.2688 165.128C84.6021 165.128 84.8652 165.224 85.0579 165.417C85.2506 165.604 85.3469 165.841 85.3469 166.128C85.3469 166.409 85.2506 166.644 85.0579 166.831C84.8652 167.019 84.6021 167.112 84.2688 167.112C83.9303 167.112 83.6646 167.019 83.4719 166.831C83.2844 166.644 83.1907 166.409 83.1907 166.128ZM87.2766 164.8H89.1594V174.995L88.9797 176.8H87.2766V164.8ZM94.675 172.495V172.659C94.675 173.284 94.6047 173.86 94.4641 174.386C94.3287 174.907 94.1204 175.36 93.8391 175.745C93.5631 176.131 93.2193 176.43 92.8079 176.644C92.4016 176.852 91.9303 176.956 91.3938 176.956C90.8678 176.956 90.4094 176.857 90.0188 176.659C89.6282 176.461 89.3 176.18 89.0344 175.815C88.774 175.451 88.5631 175.016 88.4016 174.511C88.2402 174.006 88.1256 173.448 88.0579 172.839V172.315C88.1256 171.701 88.2402 171.144 88.4016 170.644C88.5631 170.138 88.774 169.703 89.0344 169.339C89.3 168.969 89.6256 168.685 90.011 168.487C90.4016 168.289 90.8573 168.19 91.3782 168.19C91.9198 168.19 92.3964 168.295 92.8079 168.503C93.2245 168.711 93.5709 169.008 93.8469 169.394C94.123 169.774 94.3287 170.227 94.4641 170.753C94.6047 171.279 94.675 171.86 94.675 172.495ZM92.7922 172.659V172.495C92.7922 172.115 92.761 171.758 92.6985 171.425C92.636 171.086 92.5318 170.789 92.386 170.534C92.2454 170.279 92.0527 170.078 91.8079 169.933C91.5683 169.782 91.2688 169.706 90.9094 169.706C90.5761 169.706 90.2896 169.763 90.05 169.878C89.8105 169.993 89.6099 170.149 89.4485 170.347C89.287 170.545 89.1594 170.774 89.0657 171.034C88.9771 171.295 88.9172 171.576 88.886 171.878V173.292C88.9329 173.683 89.0318 174.042 89.1829 174.37C89.3391 174.693 89.5579 174.953 89.8391 175.151C90.1204 175.344 90.4823 175.44 90.925 175.44C91.274 175.44 91.5683 175.37 91.8079 175.229C92.0474 175.089 92.2375 174.894 92.3782 174.644C92.524 174.388 92.6282 174.091 92.6907 173.753C92.7584 173.414 92.7922 173.05 92.7922 172.659ZM98.1594 169.956V176.8H96.2766V168.347H98.0735L98.1594 169.956ZM100.745 168.292L100.73 170.042C100.615 170.021 100.49 170.006 100.355 169.995C100.225 169.985 100.094 169.979 99.9641 169.979C99.6412 169.979 99.3573 170.026 99.1125 170.12C98.8678 170.209 98.662 170.339 98.4954 170.511C98.3339 170.677 98.2089 170.881 98.1204 171.12C98.0318 171.36 97.9797 171.628 97.9641 171.925L97.5344 171.956C97.5344 171.425 97.5865 170.933 97.6907 170.479C97.7948 170.026 97.9511 169.628 98.1594 169.284C98.373 168.94 98.6386 168.672 98.9563 168.479C99.2792 168.287 99.6516 168.19 100.073 168.19C100.188 168.19 100.31 168.201 100.441 168.222C100.576 168.243 100.678 168.266 100.745 168.292ZM106.409 175.104V171.073C106.409 170.771 106.355 170.511 106.245 170.292C106.136 170.073 105.969 169.904 105.745 169.784C105.527 169.664 105.251 169.604 104.917 169.604C104.61 169.604 104.344 169.657 104.12 169.761C103.896 169.865 103.722 170.006 103.597 170.183C103.472 170.36 103.409 170.56 103.409 170.784H101.534C101.534 170.451 101.615 170.128 101.777 169.815C101.938 169.503 102.172 169.224 102.48 168.979C102.787 168.735 103.154 168.542 103.581 168.401C104.008 168.261 104.488 168.19 105.019 168.19C105.654 168.19 106.217 168.297 106.706 168.511C107.201 168.724 107.589 169.047 107.87 169.479C108.157 169.907 108.3 170.443 108.3 171.089V174.847C108.3 175.232 108.326 175.578 108.378 175.886C108.435 176.188 108.516 176.451 108.62 176.675V176.8H106.691C106.602 176.597 106.532 176.339 106.48 176.026C106.433 175.709 106.409 175.401 106.409 175.104ZM106.683 171.659L106.698 172.823H105.347C104.998 172.823 104.691 172.857 104.425 172.925C104.159 172.987 103.938 173.081 103.761 173.206C103.584 173.331 103.451 173.482 103.363 173.659C103.274 173.836 103.23 174.037 103.23 174.261C103.23 174.485 103.282 174.69 103.386 174.878C103.49 175.06 103.641 175.203 103.839 175.308C104.042 175.412 104.287 175.464 104.573 175.464C104.959 175.464 105.295 175.386 105.581 175.229C105.873 175.068 106.102 174.873 106.269 174.644C106.435 174.409 106.524 174.188 106.534 173.979L107.144 174.815C107.081 175.029 106.975 175.258 106.823 175.503C106.672 175.748 106.475 175.982 106.23 176.206C105.99 176.425 105.701 176.604 105.363 176.745C105.029 176.886 104.644 176.956 104.206 176.956C103.654 176.956 103.162 176.847 102.73 176.628C102.297 176.404 101.959 176.104 101.714 175.729C101.469 175.349 101.347 174.92 101.347 174.44C101.347 173.993 101.43 173.597 101.597 173.253C101.769 172.904 102.019 172.612 102.347 172.378C102.68 172.144 103.087 171.966 103.566 171.847C104.045 171.722 104.592 171.659 105.206 171.659H106.683ZM112.159 169.956V176.8H110.277V168.347H112.073L112.159 169.956ZM114.745 168.292L114.73 170.042C114.615 170.021 114.49 170.006 114.355 169.995C114.225 169.985 114.094 169.979 113.964 169.979C113.641 169.979 113.357 170.026 113.113 170.12C112.868 170.209 112.662 170.339 112.495 170.511C112.334 170.677 112.209 170.881 112.12 171.12C112.032 171.36 111.98 171.628 111.964 171.925L111.534 171.956C111.534 171.425 111.587 170.933 111.691 170.479C111.795 170.026 111.951 169.628 112.159 169.284C112.373 168.94 112.639 168.672 112.956 168.479C113.279 168.287 113.652 168.19 114.073 168.19C114.188 168.19 114.31 168.201 114.441 168.222C114.576 168.243 114.678 168.266 114.745 168.292ZM118.519 175.878L120.816 168.347H122.831L119.441 178.089C119.363 178.297 119.261 178.524 119.136 178.769C119.011 179.013 118.847 179.245 118.644 179.464C118.446 179.688 118.198 179.868 117.902 180.003C117.605 180.144 117.245 180.214 116.823 180.214C116.657 180.214 116.495 180.198 116.339 180.167C116.188 180.141 116.045 180.112 115.909 180.081L115.902 178.644C115.954 178.649 116.016 178.654 116.089 178.659C116.167 178.664 116.23 178.667 116.277 178.667C116.589 178.667 116.85 178.628 117.058 178.55C117.266 178.477 117.435 178.357 117.566 178.19C117.701 178.024 117.816 177.8 117.909 177.519L118.519 175.878ZM117.222 168.347L119.23 174.675L119.566 176.659L118.261 176.995L115.191 168.347H117.222Z" fill="black"/>
<rect x="19.8" y="183.8" width="179" height="17" rx="8.5" fill="#D9D9D9"/>
<rect x="19.8" y="183.8" width="137" height="17" rx="8.5" fill="url(#paint0_linear_133_1177)"/>
<path d="M38.7219 193.485H39.9426C39.9036 193.951 39.7734 194.366 39.552 194.73C39.3306 195.092 39.0198 195.377 38.6194 195.585C38.219 195.793 37.7323 195.897 37.1594 195.897C36.72 195.897 36.3245 195.819 35.9729 195.663C35.6213 195.504 35.3202 195.279 35.0696 194.989C34.8189 194.696 34.6269 194.343 34.4934 193.93C34.3632 193.516 34.2981 193.054 34.2981 192.543V191.952C34.2981 191.441 34.3648 190.979 34.4983 190.565C34.635 190.152 34.8303 189.799 35.0842 189.506C35.3381 189.21 35.6425 188.983 35.9973 188.827C36.3554 188.671 36.7574 188.593 37.2034 188.593C37.7698 188.593 38.2483 188.697 38.6389 188.905C39.0295 189.114 39.3323 189.402 39.5471 189.77C39.7652 190.137 39.8987 190.559 39.9475 191.034H38.7268C38.6943 190.728 38.6226 190.466 38.512 190.248C38.4045 190.03 38.245 189.864 38.0334 189.75C37.8219 189.633 37.5452 189.574 37.2034 189.574C36.9234 189.574 36.6793 189.626 36.4709 189.73C36.2626 189.835 36.0885 189.988 35.9485 190.189C35.8085 190.391 35.7027 190.64 35.6311 190.937C35.5627 191.229 35.5286 191.565 35.5286 191.942V192.543C35.5286 192.901 35.5595 193.227 35.6213 193.52C35.6864 193.809 35.7841 194.058 35.9143 194.267C36.0478 194.475 36.217 194.636 36.4221 194.75C36.6272 194.864 36.873 194.921 37.1594 194.921C37.5077 194.921 37.7893 194.866 38.0042 194.755C38.2222 194.644 38.3866 194.483 38.4973 194.271C38.6112 194.057 38.6861 193.795 38.7219 193.485ZM43.9172 194.74V192.221C43.9172 192.032 43.8831 191.869 43.8147 191.732C43.7463 191.596 43.6422 191.49 43.5022 191.415C43.3655 191.34 43.193 191.303 42.9846 191.303C42.7926 191.303 42.6265 191.335 42.4866 191.4C42.3466 191.465 42.2375 191.553 42.1594 191.664C42.0813 191.775 42.0422 191.9 42.0422 192.04H40.8704C40.8704 191.832 40.9208 191.63 41.0217 191.435C41.1226 191.239 41.2691 191.065 41.4612 190.912C41.6532 190.759 41.8827 190.639 42.1497 190.551C42.4166 190.463 42.7161 190.419 43.0481 190.419C43.4452 190.419 43.7968 190.486 44.1028 190.619C44.412 190.753 44.6545 190.954 44.8303 191.225C45.0094 191.492 45.0989 191.827 45.0989 192.23V194.579C45.0989 194.82 45.1152 195.036 45.1477 195.229C45.1835 195.417 45.234 195.582 45.2991 195.722V195.8H44.093C44.0377 195.673 43.9937 195.512 43.9612 195.316C43.9319 195.118 43.9172 194.926 43.9172 194.74ZM44.0881 192.587L44.0979 193.314H43.2532C43.0351 193.314 42.843 193.336 42.677 193.378C42.511 193.417 42.3726 193.476 42.262 193.554C42.1513 193.632 42.0683 193.726 42.0129 193.837C41.9576 193.948 41.9299 194.073 41.9299 194.213C41.9299 194.353 41.9625 194.481 42.0276 194.599C42.0927 194.713 42.1871 194.802 42.3108 194.867C42.4377 194.932 42.5907 194.965 42.7698 194.965C43.0107 194.965 43.2206 194.916 43.3997 194.818C43.5819 194.717 43.7252 194.595 43.8293 194.452C43.9335 194.306 43.9889 194.167 43.9954 194.037L44.3762 194.56C44.3372 194.693 44.2704 194.836 44.176 194.989C44.0816 195.142 43.9579 195.289 43.8049 195.429C43.6552 195.565 43.4745 195.678 43.2629 195.766C43.0546 195.854 42.8137 195.897 42.5403 195.897C42.1952 195.897 41.8876 195.829 41.6174 195.692C41.3472 195.552 41.1357 195.365 40.9827 195.131C40.8297 194.893 40.7532 194.625 40.7532 194.325C40.7532 194.045 40.8053 193.798 40.9094 193.583C41.0168 193.365 41.1731 193.183 41.3782 193.036C41.5865 192.89 41.8404 192.779 42.1399 192.704C42.4394 192.626 42.7812 192.587 43.1653 192.587H44.0881ZM47.511 191.532V197.831H46.3342V190.517H47.4182L47.511 191.532ZM50.9534 193.109V193.212C50.9534 193.596 50.9078 193.952 50.8167 194.281C50.7288 194.607 50.5969 194.892 50.4211 195.136C50.2486 195.377 50.0354 195.564 49.7815 195.697C49.5276 195.831 49.2346 195.897 48.9026 195.897C48.5738 195.897 48.2857 195.837 48.0383 195.717C47.7942 195.593 47.5875 195.419 47.4182 195.194C47.2489 194.97 47.1122 194.706 47.0081 194.403C46.9071 194.097 46.8355 193.762 46.7932 193.397V193.002C46.8355 192.615 46.9071 192.263 47.0081 191.947C47.1122 191.632 47.2489 191.36 47.4182 191.132C47.5875 190.904 47.7942 190.728 48.0383 190.604C48.2825 190.481 48.5673 190.419 48.8928 190.419C49.2249 190.419 49.5194 190.484 49.7766 190.614C50.0338 190.741 50.2502 190.924 50.426 191.161C50.6018 191.396 50.7336 191.679 50.8215 192.011C50.9094 192.34 50.9534 192.706 50.9534 193.109ZM49.7766 193.212V193.109C49.7766 192.865 49.7538 192.639 49.7083 192.431C49.6627 192.219 49.5911 192.034 49.4934 191.874C49.3958 191.715 49.2704 191.591 49.1174 191.503C48.9677 191.412 48.787 191.366 48.5754 191.366C48.3671 191.366 48.1881 191.402 48.0383 191.474C47.8886 191.542 47.7633 191.638 47.6624 191.762C47.5614 191.885 47.4833 192.03 47.428 192.196C47.3726 192.359 47.3336 192.536 47.3108 192.729V193.676C47.3499 193.91 47.4166 194.125 47.511 194.32C47.6054 194.516 47.7389 194.672 47.9114 194.789C48.0872 194.903 48.3118 194.96 48.5852 194.96C48.7968 194.96 48.9775 194.914 49.1272 194.823C49.2769 194.732 49.399 194.607 49.4934 194.447C49.5911 194.285 49.6627 194.097 49.7083 193.886C49.7538 193.674 49.7766 193.45 49.7766 193.212ZM54.9329 194.74V192.221C54.9329 192.032 54.8987 191.869 54.8303 191.732C54.762 191.596 54.6578 191.49 54.5178 191.415C54.3811 191.34 54.2086 191.303 54.0002 191.303C53.8082 191.303 53.6422 191.335 53.5022 191.4C53.3622 191.465 53.2532 191.553 53.175 191.664C53.0969 191.775 53.0579 191.9 53.0579 192.04H51.886C51.886 191.832 51.9364 191.63 52.0374 191.435C52.1383 191.239 52.2847 191.065 52.4768 190.912C52.6689 190.759 52.8984 190.639 53.1653 190.551C53.4322 190.463 53.7317 190.419 54.0637 190.419C54.4609 190.419 54.8124 190.486 55.1184 190.619C55.4277 190.753 55.6702 190.954 55.8459 191.225C56.025 191.492 56.1145 191.827 56.1145 192.23V194.579C56.1145 194.82 56.1308 195.036 56.1633 195.229C56.1991 195.417 56.2496 195.582 56.3147 195.722V195.8H55.1086C55.0533 195.673 55.0094 195.512 54.9768 195.316C54.9475 195.118 54.9329 194.926 54.9329 194.74ZM55.1038 192.587L55.1135 193.314H54.2688C54.0507 193.314 53.8586 193.336 53.6926 193.378C53.5266 193.417 53.3883 193.476 53.2776 193.554C53.1669 193.632 53.0839 193.726 53.0286 193.837C52.9732 193.948 52.9456 194.073 52.9456 194.213C52.9456 194.353 52.9781 194.481 53.0432 194.599C53.1083 194.713 53.2027 194.802 53.3264 194.867C53.4534 194.932 53.6064 194.965 53.7854 194.965C54.0263 194.965 54.2362 194.916 54.4153 194.818C54.5976 194.717 54.7408 194.595 54.845 194.452C54.9491 194.306 55.0045 194.167 55.011 194.037L55.3918 194.56C55.3528 194.693 55.2861 194.836 55.1917 194.989C55.0972 195.142 54.9736 195.289 54.8206 195.429C54.6708 195.565 54.4902 195.678 54.2786 195.766C54.0702 195.854 53.8293 195.897 53.5559 195.897C53.2109 195.897 52.9032 195.829 52.6331 195.692C52.3629 195.552 52.1513 195.365 51.9983 195.131C51.8453 194.893 51.7688 194.625 51.7688 194.325C51.7688 194.045 51.8209 193.798 51.925 193.583C52.0325 193.365 52.1887 193.183 52.3938 193.036C52.6021 192.89 52.856 192.779 53.1555 192.704C53.455 192.626 53.7968 192.587 54.1809 192.587H55.1038ZM59.5032 194.96C59.6952 194.96 59.8678 194.923 60.0208 194.848C60.177 194.77 60.3023 194.662 60.3967 194.525C60.4944 194.389 60.5481 194.231 60.5579 194.052H61.6663C61.6597 194.394 61.5588 194.704 61.3635 194.984C61.1682 195.264 60.9094 195.487 60.5872 195.653C60.2649 195.816 59.9084 195.897 59.5178 195.897C59.1142 195.897 58.7626 195.829 58.4631 195.692C58.1637 195.552 57.9146 195.36 57.7161 195.116C57.5175 194.872 57.3678 194.59 57.2668 194.271C57.1692 193.952 57.1204 193.611 57.1204 193.246V193.075C57.1204 192.711 57.1692 192.369 57.2668 192.05C57.3678 191.728 57.5175 191.444 57.7161 191.2C57.9146 190.956 58.1637 190.766 58.4631 190.629C58.7626 190.489 59.1125 190.419 59.5129 190.419C59.9361 190.419 60.3072 190.504 60.6262 190.673C60.9452 190.839 61.1959 191.072 61.3782 191.371C61.5637 191.667 61.6597 192.012 61.6663 192.406H60.5579C60.5481 192.211 60.4993 192.035 60.4114 191.879C60.3267 191.719 60.2063 191.592 60.05 191.498C59.8971 191.404 59.7131 191.356 59.4983 191.356C59.2607 191.356 59.0637 191.405 58.9075 191.503C58.7512 191.597 58.6292 191.728 58.5413 191.894C58.4534 192.056 58.3899 192.24 58.3508 192.445C58.315 192.647 58.2971 192.857 58.2971 193.075V193.246C58.2971 193.464 58.315 193.676 58.3508 193.881C58.3866 194.086 58.4485 194.27 58.5364 194.433C58.6275 194.592 58.7512 194.721 58.9075 194.818C59.0637 194.913 59.2623 194.96 59.5032 194.96ZM63.8293 190.517V195.8H62.6477V190.517H63.8293ZM62.5696 189.13C62.5696 188.951 62.6282 188.803 62.7454 188.686C62.8658 188.565 63.0318 188.505 63.2434 188.505C63.4517 188.505 63.6161 188.565 63.7366 188.686C63.857 188.803 63.9172 188.951 63.9172 189.13C63.9172 189.306 63.857 189.452 63.7366 189.569C63.6161 189.687 63.4517 189.745 63.2434 189.745C63.0318 189.745 62.8658 189.687 62.7454 189.569C62.6282 189.452 62.5696 189.306 62.5696 189.13ZM67.5403 190.517V191.376H64.5618V190.517H67.5403ZM65.4211 189.223H66.5979V194.34C66.5979 194.503 66.6207 194.628 66.6663 194.716C66.7151 194.8 66.7818 194.857 66.8665 194.887C66.9511 194.916 67.0504 194.931 67.1643 194.931C67.2457 194.931 67.3238 194.926 67.3987 194.916C67.4736 194.906 67.5338 194.896 67.5793 194.887L67.5842 195.785C67.4866 195.814 67.3726 195.84 67.2424 195.863C67.1155 195.886 66.969 195.897 66.803 195.897C66.5328 195.897 66.2935 195.85 66.0852 195.756C65.8769 195.658 65.7141 195.5 65.5969 195.282C65.4797 195.064 65.4211 194.774 65.4211 194.413V189.223ZM69.9817 195.224L71.4172 190.517H72.677L70.5579 196.605C70.509 196.736 70.4456 196.877 70.3674 197.03C70.2893 197.183 70.1868 197.328 70.0598 197.465C69.9361 197.605 69.7815 197.717 69.5959 197.802C69.4104 197.89 69.1858 197.934 68.9221 197.934C68.818 197.934 68.717 197.924 68.6194 197.904C68.525 197.888 68.4355 197.87 68.3508 197.851L68.3459 196.952C68.3785 196.955 68.4176 196.959 68.4631 196.962C68.512 196.965 68.551 196.967 68.5803 196.967C68.7756 196.967 68.9384 196.942 69.0686 196.894C69.1988 196.848 69.3046 196.773 69.386 196.669C69.4706 196.565 69.5422 196.425 69.6008 196.249L69.9817 195.224ZM69.1711 190.517L70.426 194.472L70.636 195.712L69.8206 195.922L67.9016 190.517H69.1711ZM80.4944 188.69V189.335L77.6526 195.8H76.4124L79.2493 189.628H75.5676V188.69H80.4944ZM85.011 188.646H85.1575V189.608H85.0745C84.6545 189.608 84.2916 189.674 83.9856 189.804C83.6829 189.934 83.4338 190.113 83.2385 190.341C83.0432 190.569 82.8967 190.836 82.7991 191.142C82.7047 191.444 82.6575 191.767 82.6575 192.108V193.227C82.6575 193.51 82.6884 193.76 82.7502 193.979C82.8121 194.193 82.8984 194.374 83.009 194.521C83.123 194.664 83.2532 194.773 83.3997 194.848C83.5461 194.923 83.704 194.96 83.8733 194.96C84.0491 194.96 84.2086 194.924 84.3518 194.853C84.495 194.778 84.6171 194.675 84.718 194.545C84.8189 194.415 84.8954 194.26 84.9475 194.081C84.9996 193.902 85.0256 193.707 85.0256 193.495C85.0256 193.293 84.9996 193.104 84.9475 192.929C84.8987 192.75 84.8254 192.593 84.7278 192.46C84.6301 192.323 84.5081 192.217 84.3616 192.143C84.2183 192.064 84.0523 192.025 83.8635 192.025C83.6292 192.025 83.4159 192.081 83.2239 192.191C83.0351 192.302 82.8821 192.447 82.7649 192.626C82.651 192.802 82.5891 192.989 82.5793 193.188L82.1301 193.041C82.1562 192.738 82.2229 192.466 82.3303 192.226C82.441 191.985 82.5859 191.78 82.7649 191.61C82.9439 191.441 83.1506 191.312 83.385 191.225C83.6226 191.133 83.8831 191.088 84.1663 191.088C84.5113 191.088 84.8108 191.153 85.0647 191.283C85.3186 191.413 85.5286 191.591 85.6946 191.815C85.8639 192.037 85.9892 192.291 86.0706 192.577C86.1552 192.86 86.1975 193.157 86.1975 193.466C86.1975 193.808 86.1454 194.127 86.0413 194.423C85.9371 194.716 85.7841 194.973 85.5823 195.194C85.3837 195.416 85.1412 195.588 84.8547 195.712C84.5715 195.836 84.2493 195.897 83.8879 195.897C83.5071 195.897 83.1669 195.824 82.8674 195.678C82.5712 195.531 82.3189 195.329 82.1106 195.072C81.9055 194.815 81.7493 194.519 81.6418 194.184C81.5344 193.848 81.4807 193.493 81.4807 193.119V192.631C81.4807 192.09 81.5491 191.581 81.6858 191.103C81.8225 190.621 82.0325 190.196 82.3157 189.828C82.6021 189.46 82.9683 189.172 83.4143 188.964C83.8603 188.752 84.3925 188.646 85.011 188.646ZM87.0911 190.434V190.058C87.0911 189.787 87.1497 189.542 87.2668 189.32C87.384 189.099 87.5549 188.922 87.7795 188.788C88.0042 188.655 88.2743 188.588 88.5901 188.588C88.9156 188.588 89.189 188.655 89.4104 188.788C89.635 188.922 89.8059 189.099 89.9231 189.32C90.0403 189.542 90.0989 189.787 90.0989 190.058V190.434C90.0989 190.697 90.0403 190.94 89.9231 191.161C89.8092 191.382 89.6399 191.56 89.4153 191.693C89.1939 191.827 88.9221 191.894 88.5999 191.894C88.2808 191.894 88.0074 191.827 87.7795 191.693C87.5549 191.56 87.384 191.382 87.2668 191.161C87.1497 190.94 87.0911 190.697 87.0911 190.434ZM87.9065 190.058V190.434C87.9065 190.564 87.9309 190.688 87.9797 190.805C88.0318 190.922 88.1099 191.016 88.2141 191.088C88.3183 191.16 88.4469 191.195 88.5999 191.195C88.7561 191.195 88.8831 191.16 88.9807 191.088C89.0816 191.016 89.1565 190.922 89.2053 190.805C89.2542 190.688 89.2786 190.564 89.2786 190.434V190.058C89.2786 189.924 89.2525 189.799 89.2004 189.682C89.1516 189.561 89.0767 189.465 88.9758 189.394C88.8749 189.322 88.7463 189.286 88.5901 189.286C88.4403 189.286 88.3134 189.322 88.2092 189.394C88.1083 189.465 88.0318 189.561 87.9797 189.682C87.9309 189.799 87.9065 189.924 87.9065 190.058ZM90.5188 194.438V194.057C90.5188 193.79 90.5774 193.546 90.6946 193.324C90.815 193.103 90.9875 192.925 91.2122 192.792C91.4368 192.659 91.7069 192.592 92.0227 192.592C92.3482 192.592 92.6217 192.659 92.843 192.792C93.0676 192.925 93.2369 193.103 93.3508 193.324C93.468 193.546 93.5266 193.79 93.5266 194.057V194.438C93.5266 194.704 93.468 194.949 93.3508 195.17C93.2369 195.391 93.0693 195.569 92.8479 195.702C92.6265 195.836 92.3547 195.902 92.0325 195.902C91.7135 195.902 91.44 195.836 91.2122 195.702C90.9875 195.569 90.815 195.391 90.6946 195.17C90.5774 194.949 90.5188 194.704 90.5188 194.438ZM91.3391 194.057V194.438C91.3391 194.568 91.3652 194.691 91.4172 194.809C91.4726 194.926 91.5523 195.022 91.6565 195.097C91.7607 195.168 91.886 195.204 92.0325 195.204C92.1985 195.204 92.3319 195.168 92.4329 195.097C92.5338 195.022 92.6054 194.927 92.6477 194.813C92.6933 194.696 92.7161 194.571 92.7161 194.438V194.057C92.7161 193.923 92.69 193.798 92.6379 193.681C92.5891 193.563 92.5126 193.469 92.4084 193.397C92.3075 193.326 92.179 193.29 92.0227 193.29C91.8697 193.29 91.7428 193.326 91.6418 193.397C91.5409 193.469 91.4644 193.563 91.4124 193.681C91.3635 193.798 91.3391 193.923 91.3391 194.057ZM92.3157 189.706L88.844 195.263L88.2434 194.916L91.7151 189.359L92.3157 189.706Z" fill="white"/>
<path d="M245.86 164.305C246.131 163.643 247.069 163.643 247.34 164.305L248.72 167.668C248.834 167.948 249.098 168.139 249.4 168.162L253.024 168.434C253.738 168.488 254.027 169.38 253.482 169.842L250.71 172.193C250.479 172.389 250.378 172.699 250.45 172.993L251.311 176.524C251.48 177.219 250.722 177.77 250.113 177.394L247.02 175.484C246.763 175.325 246.437 175.325 246.18 175.484L243.087 177.394C242.478 177.77 241.72 177.219 241.889 176.524L242.75 172.993C242.822 172.699 242.721 172.389 242.491 172.193L239.718 169.842C239.173 169.38 239.462 168.488 240.176 168.434L243.8 168.162C244.102 168.139 244.366 167.948 244.481 167.668L245.86 164.305Z" fill="white" stroke="#FDAF5C"/>
<path d="M263.46 164.305C263.731 163.643 264.669 163.643 264.94 164.305L266.32 167.668C266.435 167.948 266.698 168.139 267 168.162L270.624 168.434C271.338 168.488 271.627 169.38 271.082 169.842L268.31 172.193C268.079 172.389 267.978 172.699 268.05 172.993L268.911 176.524C269.08 177.219 268.322 177.77 267.713 177.394L264.621 175.484C264.363 175.325 264.037 175.325 263.78 175.484L260.687 177.394C260.079 177.77 259.32 177.219 259.49 176.524L260.35 172.993C260.422 172.699 260.322 172.389 260.091 172.193L257.318 169.842C256.773 169.38 257.063 168.488 257.776 168.434L261.401 168.162C261.703 168.139 261.966 167.948 262.081 167.668L263.46 164.305Z" fill="white" stroke="#FDAF5C"/>
<path d="M281.06 164.305C281.332 163.643 282.269 163.643 282.54 164.305L283.92 167.668C284.035 167.948 284.298 168.139 284.6 168.162L288.224 168.434C288.938 168.488 289.228 169.38 288.682 169.842L285.91 172.193C285.679 172.389 285.578 172.699 285.65 172.993L286.511 176.524C286.68 177.219 285.922 177.77 285.313 177.394L282.221 175.484C281.963 175.325 281.638 175.325 281.38 175.484L278.287 177.394C277.679 177.77 276.92 177.219 277.09 176.524L277.951 172.993C278.022 172.699 277.922 172.389 277.691 172.193L274.919 169.842C274.373 169.38 274.663 168.488 275.376 168.434L279.001 168.162C279.303 168.139 279.566 167.948 279.681 167.668L281.06 164.305Z" fill="white" stroke="#FDAF5C"/>
<path d="M298.66 164.305C298.931 163.643 299.869 163.643 300.14 164.305L301.519 167.668C301.634 167.948 301.897 168.139 302.199 168.162L305.824 168.434C306.537 168.488 306.827 169.38 306.282 169.842L303.509 172.193C303.278 172.389 303.178 172.699 303.25 172.993L304.11 176.524C304.28 177.219 303.521 177.77 302.913 177.394L299.82 175.484C299.563 175.325 299.237 175.325 298.979 175.484L295.887 177.394C295.278 177.77 294.52 177.219 294.689 176.524L295.55 172.993C295.622 172.699 295.521 172.389 295.29 172.193L292.518 169.842C291.973 169.38 292.262 168.488 292.976 168.434L296.6 168.162C296.902 168.139 297.165 167.948 297.28 167.668L298.66 164.305Z" fill="white" stroke="#FDAF5C"/>
<path d="M316.26 164.305C316.531 163.643 317.469 163.643 317.74 164.305L319.119 167.668C319.234 167.948 319.498 168.139 319.8 168.162L323.424 168.434C324.138 168.488 324.427 169.38 323.882 169.842L321.109 172.193C320.879 172.389 320.778 172.699 320.85 172.993L321.711 176.524C321.88 177.219 321.122 177.77 320.513 177.394L317.42 175.484C317.163 175.325 316.837 175.325 316.58 175.484L313.487 177.394C312.878 177.77 312.12 177.219 312.289 176.524L313.15 172.993C313.222 172.699 313.121 172.389 312.89 172.193L310.118 169.842C309.573 169.38 309.862 168.488 310.576 168.434L314.2 168.162C314.502 168.139 314.766 167.948 314.88 167.668L316.26 164.305Z" fill="white" stroke="#FDAF5C"/>
<g filter="url(#filter1_d_133_1177)">
<rect x="19.8" y="207.8" width="78" height="23" rx="8" fill="#FDAF5C"/>
</g>
<path d="M37.5881 222.8H36.0696L36.0793 221.828H37.5881C38.0276 221.828 38.3954 221.732 38.6917 221.54C38.9911 221.348 39.2157 221.073 39.3655 220.715C39.5185 220.357 39.595 219.93 39.595 219.436V219.05C39.595 218.666 39.551 218.326 39.4631 218.029C39.3785 217.733 39.2515 217.484 39.0823 217.282C38.9163 217.08 38.7112 216.927 38.467 216.823C38.2262 216.719 37.9478 216.667 37.6321 216.667H36.0403V215.69H37.6321C38.1041 215.69 38.5354 215.77 38.926 215.93C39.3167 216.086 39.6536 216.312 39.9368 216.608C40.2232 216.905 40.443 217.259 40.5959 217.673C40.7489 218.086 40.8254 218.549 40.8254 219.06V219.436C40.8254 219.947 40.7489 220.409 40.5959 220.822C40.443 221.236 40.2232 221.59 39.9368 221.887C39.6503 222.18 39.3085 222.406 38.9114 222.565C38.5175 222.722 38.0764 222.8 37.5881 222.8ZM36.7483 215.69V222.8H35.5227V215.69H36.7483ZM43.1985 217.517V222.8H42.0168V217.517H43.1985ZM41.9387 216.13C41.9387 215.951 41.9973 215.803 42.1145 215.686C42.2349 215.565 42.401 215.505 42.6125 215.505C42.8209 215.505 42.9853 215.565 43.1057 215.686C43.2262 215.803 43.2864 215.951 43.2864 216.13C43.2864 216.306 43.2262 216.452 43.1057 216.569C42.9853 216.687 42.8209 216.745 42.6125 216.745C42.401 216.745 42.2349 216.687 42.1145 216.569C41.9973 216.452 41.9387 216.306 41.9387 216.13ZM45.6692 218.522V222.8H44.4924V217.517H45.6155L45.6692 218.522ZM47.2854 217.482L47.2756 218.576C47.204 218.563 47.1259 218.553 47.0413 218.547C46.9599 218.54 46.8785 218.537 46.7971 218.537C46.5953 218.537 46.4179 218.566 46.2649 218.625C46.1119 218.68 45.9833 218.762 45.8792 218.869C45.7782 218.973 45.7001 219.1 45.6448 219.25C45.5894 219.4 45.5569 219.567 45.5471 219.753L45.2786 219.772C45.2786 219.44 45.3111 219.133 45.3762 218.85C45.4413 218.566 45.539 218.317 45.6692 218.103C45.8027 217.888 45.9687 217.72 46.1672 217.6C46.3691 217.479 46.6018 217.419 46.8655 217.419C46.9371 217.419 47.0136 217.425 47.095 217.438C47.1796 217.451 47.2431 217.466 47.2854 217.482ZM50.2542 222.897C49.8635 222.897 49.5103 222.834 49.1946 222.707C48.8821 222.577 48.6152 222.396 48.3938 222.165C48.1757 221.934 48.0081 221.662 47.8909 221.35C47.7737 221.037 47.7151 220.7 47.7151 220.339V220.144C47.7151 219.73 47.7753 219.356 47.8958 219.021C48.0162 218.685 48.1838 218.399 48.3987 218.161C48.6135 217.92 48.8674 217.736 49.1604 217.609C49.4534 217.482 49.7708 217.419 50.1125 217.419C50.4902 217.419 50.8206 217.482 51.1038 217.609C51.387 217.736 51.6213 217.915 51.8069 218.146C51.9957 218.374 52.1357 218.646 52.2268 218.962C52.3212 219.278 52.3684 219.626 52.3684 220.007V220.51H48.2864V219.665H51.2063V219.572C51.1998 219.361 51.1575 219.162 51.0793 218.977C51.0045 218.791 50.8889 218.641 50.7327 218.527C50.5764 218.413 50.3681 218.356 50.1077 218.356C49.9124 218.356 49.7382 218.399 49.5852 218.483C49.4355 218.565 49.3101 218.684 49.2092 218.84C49.1083 218.996 49.0302 219.185 48.9749 219.406C48.9228 219.624 48.8967 219.87 48.8967 220.144V220.339C48.8967 220.57 48.9277 220.785 48.9895 220.983C49.0546 221.179 49.149 221.35 49.2727 221.496C49.3964 221.643 49.5461 221.758 49.7219 221.843C49.8977 221.924 50.0979 221.965 50.3225 221.965C50.6057 221.965 50.858 221.908 51.0793 221.794C51.3007 221.68 51.4928 221.519 51.6555 221.311L52.2756 221.911C52.1617 222.077 52.0136 222.237 51.8313 222.39C51.649 222.539 51.426 222.661 51.1624 222.756C50.9019 222.85 50.5992 222.897 50.2542 222.897ZM55.4446 221.96C55.6366 221.96 55.8092 221.923 55.9622 221.848C56.1184 221.77 56.2437 221.662 56.3381 221.525C56.4358 221.389 56.4895 221.231 56.4993 221.052H57.6077C57.6012 221.394 57.5002 221.704 57.3049 221.984C57.1096 222.264 56.8508 222.487 56.5286 222.653C56.2063 222.816 55.8499 222.897 55.4592 222.897C55.0556 222.897 54.704 222.829 54.4045 222.692C54.1051 222.552 53.856 222.36 53.6575 222.116C53.4589 221.872 53.3092 221.59 53.2083 221.271C53.1106 220.952 53.0618 220.611 53.0618 220.246V220.075C53.0618 219.711 53.1106 219.369 53.2083 219.05C53.3092 218.728 53.4589 218.444 53.6575 218.2C53.856 217.956 54.1051 217.766 54.4045 217.629C54.704 217.489 55.054 217.419 55.4543 217.419C55.8775 217.419 56.2486 217.504 56.5676 217.673C56.8866 217.839 57.1373 218.072 57.3196 218.371C57.5051 218.667 57.6012 219.012 57.6077 219.406H56.4993C56.4895 219.211 56.4407 219.035 56.3528 218.879C56.2681 218.719 56.1477 218.592 55.9915 218.498C55.8385 218.404 55.6545 218.356 55.4397 218.356C55.2021 218.356 55.0051 218.405 54.8489 218.503C54.6926 218.597 54.5706 218.728 54.4827 218.894C54.3948 219.056 54.3313 219.24 54.2922 219.445C54.2564 219.647 54.2385 219.857 54.2385 220.075V220.246C54.2385 220.464 54.2564 220.676 54.2922 220.881C54.328 221.086 54.3899 221.27 54.4778 221.433C54.5689 221.592 54.6926 221.721 54.8489 221.818C55.0051 221.913 55.2037 221.96 55.4446 221.96ZM60.9329 217.517V218.376H57.9543V217.517H60.9329ZM58.8137 216.223H59.9905V221.34C59.9905 221.503 60.0133 221.628 60.0588 221.716C60.1077 221.8 60.1744 221.857 60.259 221.887C60.3437 221.916 60.443 221.931 60.5569 221.931C60.6383 221.931 60.7164 221.926 60.7913 221.916C60.8661 221.906 60.9264 221.896 60.9719 221.887L60.9768 222.785C60.8792 222.814 60.7652 222.84 60.635 222.863C60.5081 222.886 60.3616 222.897 60.1956 222.897C59.9254 222.897 59.6861 222.85 59.4778 222.756C59.2694 222.658 59.1067 222.5 58.9895 222.282C58.8723 222.064 58.8137 221.774 58.8137 221.413V216.223ZM63.1008 217.517V222.8H61.9192V217.517H63.1008ZM61.8411 216.13C61.8411 215.951 61.8997 215.803 62.0168 215.686C62.1373 215.565 62.3033 215.505 62.5149 215.505C62.7232 215.505 62.8876 215.565 63.0081 215.686C63.1285 215.803 63.1887 215.951 63.1887 216.13C63.1887 216.306 63.1285 216.452 63.0081 216.569C62.8876 216.687 62.7232 216.745 62.5149 216.745C62.3033 216.745 62.1373 216.687 62.0168 216.569C61.8997 216.452 61.8411 216.306 61.8411 216.13ZM64.1653 220.217V220.104C64.1653 219.724 64.2206 219.37 64.3313 219.045C64.442 218.716 64.6015 218.431 64.8098 218.19C65.0214 217.946 65.2786 217.757 65.5813 217.624C65.8873 217.487 66.2323 217.419 66.6165 217.419C67.0038 217.419 67.3489 217.487 67.6516 217.624C67.9576 217.757 68.2164 217.946 68.428 218.19C68.6396 218.431 68.8007 218.716 68.9114 219.045C69.0221 219.37 69.0774 219.724 69.0774 220.104V220.217C69.0774 220.598 69.0221 220.951 68.9114 221.276C68.8007 221.602 68.6396 221.887 68.428 222.131C68.2164 222.372 67.9592 222.561 67.6565 222.697C67.3538 222.831 67.0103 222.897 66.6262 222.897C66.2389 222.897 65.8922 222.831 65.5862 222.697C65.2834 222.561 65.0263 222.372 64.8147 222.131C64.6031 221.887 64.442 221.602 64.3313 221.276C64.2206 220.951 64.1653 220.598 64.1653 220.217ZM65.342 220.104V220.217C65.342 220.454 65.3665 220.679 65.4153 220.891C65.4641 221.102 65.5406 221.288 65.6448 221.447C65.7489 221.607 65.8824 221.732 66.0452 221.823C66.2079 221.914 66.4016 221.96 66.6262 221.96C66.8443 221.96 67.0331 221.914 67.1926 221.823C67.3554 221.732 67.4889 221.607 67.593 221.447C67.6972 221.288 67.7737 221.102 67.8225 220.891C67.8746 220.679 67.9006 220.454 67.9006 220.217V220.104C67.9006 219.87 67.8746 219.649 67.8225 219.44C67.7737 219.229 67.6956 219.042 67.5881 218.879C67.484 218.716 67.3505 218.589 67.1877 218.498C67.0282 218.404 66.8378 218.356 66.6165 218.356C66.3951 218.356 66.203 218.404 66.0403 218.498C65.8808 218.589 65.7489 218.716 65.6448 218.879C65.5406 219.042 65.4641 219.229 65.4153 219.44C65.3665 219.649 65.342 219.87 65.342 220.104ZM71.2307 218.645V222.8H70.054V217.517H71.1624L71.2307 218.645ZM71.0208 219.963L70.6399 219.958C70.6431 219.584 70.6952 219.24 70.7961 218.928C70.9003 218.615 71.0435 218.347 71.2258 218.122C71.4114 217.897 71.6327 217.725 71.8899 217.604C72.1471 217.481 72.4335 217.419 72.7493 217.419C73.0032 217.419 73.2327 217.455 73.4377 217.526C73.6461 217.595 73.8235 217.707 73.97 217.863C74.1197 218.02 74.2336 218.223 74.3118 218.474C74.3899 218.721 74.429 219.025 74.429 219.387V222.8H73.2473V219.382C73.2473 219.128 73.2099 218.928 73.135 218.781C73.0634 218.632 72.9576 218.526 72.8176 218.464C72.6809 218.399 72.51 218.366 72.3049 218.366C72.1031 218.366 71.9224 218.409 71.7629 218.493C71.6034 218.578 71.4683 218.693 71.3577 218.84C71.2502 218.986 71.1672 219.156 71.1086 219.348C71.05 219.54 71.0208 219.745 71.0208 219.963ZM78.594 221.369C78.594 221.252 78.5647 221.146 78.5061 221.052C78.4475 220.954 78.3352 220.866 78.1692 220.788C78.0064 220.71 77.7655 220.638 77.4465 220.573C77.1666 220.511 76.9094 220.438 76.675 220.354C76.4439 220.266 76.2454 220.16 76.0793 220.036C75.9133 219.912 75.7847 219.766 75.6936 219.597C75.6025 219.427 75.5569 219.232 75.5569 219.011C75.5569 218.796 75.6041 218.592 75.6985 218.4C75.7929 218.208 75.928 218.039 76.1038 217.893C76.2795 217.746 76.4928 217.631 76.7434 217.546C76.9973 217.461 77.2805 217.419 77.593 217.419C78.0357 217.419 78.415 217.494 78.7307 217.644C79.0497 217.79 79.2939 217.99 79.4631 218.244C79.6324 218.495 79.717 218.778 79.717 219.094H78.5403C78.5403 218.954 78.5045 218.824 78.4329 218.703C78.3645 218.579 78.2603 218.48 78.1204 218.405C77.9804 218.327 77.8046 218.288 77.593 218.288C77.3912 218.288 77.2236 218.321 77.0901 218.386C76.9599 218.448 76.8622 218.529 76.7971 218.63C76.7353 218.731 76.7043 218.841 76.7043 218.962C76.7043 219.05 76.7206 219.13 76.7532 219.201C76.789 219.27 76.8476 219.333 76.929 219.392C77.0103 219.447 77.121 219.499 77.261 219.548C77.4042 219.597 77.5833 219.644 77.7981 219.689C78.2017 219.774 78.5484 219.883 78.8381 220.017C79.1311 220.147 79.3557 220.316 79.512 220.524C79.6682 220.729 79.7463 220.99 79.7463 221.306C79.7463 221.54 79.6959 221.755 79.595 221.95C79.4973 222.142 79.3541 222.31 79.1653 222.453C78.9765 222.593 78.7502 222.702 78.4866 222.78C78.2262 222.858 77.9332 222.897 77.6077 222.897C77.1292 222.897 76.7239 222.813 76.3918 222.644C76.0598 222.471 75.8075 222.251 75.635 221.984C75.4657 221.714 75.3811 221.434 75.3811 221.145H76.5188C76.5318 221.363 76.592 221.537 76.6995 221.667C76.8101 221.794 76.9469 221.887 77.1096 221.945C77.2756 222.001 77.4465 222.028 77.6223 222.028C77.8339 222.028 78.0113 222.001 78.1545 221.945C78.2978 221.887 78.4068 221.809 78.4817 221.711C78.5566 221.61 78.594 221.496 78.594 221.369Z" fill="white"/>
<defs>
<filter id="filter0_d_133_1177" x="4.86374e-05" y="-0.000195503" width="366.6" height="285.6" filterUnits="userSpaceOnUse" color-interpolation-filters="sRGB">
<feFlood flood-opacity="0" result="BackgroundImageFix"/>
<feColorMatrix in="SourceAlpha" type="matrix" values="0 0 0 0 0 0 0 0 0 0 0 0 0 0 0 0 0 0 127 0" result="hardAlpha"/>
<feOffset dx="3" dy="7"/>
<feGaussianBlur stdDeviation="4.9"/>
<feComposite in2="hardAlpha" operator="out"/>
<feColorMatrix type="matrix" values="0 0 0 0 0 0 0 0 0 0 0 0 0 0 0 0 0 0 0.25 0"/>
<feBlend mode="normal" in2="BackgroundImageFix" result="effect1_dropShadow_133_1177"/>
<feBlend mode="normal" in="SourceGraphic" in2="effect1_dropShadow_133_1177" result="shape"/>
</filter>
<filter id="filter1_d_133_1177" x="16.9" y="204.9" width="85.8" height="30.8" filterUnits="userSpaceOnUse" color-interpolation-filters="sRGB">
<feFlood flood-opacity="0" result="BackgroundImageFix"/>
<feColorMatrix in="SourceAlpha" type="matrix" values="0 0 0 0 0 0 0 0 0 0 0 0 0 0 0 0 0 0 127 0" result="hardAlpha"/>
<feOffset dx="1" dy="1"/>
<feGaussianBlur stdDeviation="1.95"/>
<feComposite in2="hardAlpha" operator="out"/>
<feColorMatrix type="matrix" values="0 0 0 0 0 0 0 0 0 0 0 0 0 0 0 0 0 0 0.25 0"/>
<feBlend mode="normal" in2="BackgroundImageFix" result="effect1_dropShadow_133_1177"/>
<feBlend mode="normal" in="SourceGraphic" in2="effect1_dropShadow_133_1177" result="shape"/>
</filter>
<linearGradient id="paint0_linear_133_1177" x1="19.8" y1="192.3" x2="156.8" y2="192.3" gradientUnits="userSpaceOnUse">
<stop stop-color="#FDAF5C"/>
<stop offset="1" stop-color="#FF8B16"/>
</linearGradient>
</defs>
</svg>
