<svg width="155" height="56" viewBox="0 0 155 56" fill="none" xmlns="http://www.w3.org/2000/svg">
<g filter="url(#filter0_d_139_1268)">
<rect x="5.21997" y="5.22021" width="140.4" height="41.4" rx="14.4" fill="#FDAF5C"/>
</g>
<path d="M37.2385 33.0205H34.5051L34.5227 31.2715H37.2385C38.0295 31.2715 38.6917 31.0986 39.2249 30.7529C39.7639 30.4072 40.1682 29.9121 40.4377 29.2676C40.7131 28.623 40.8508 27.8555 40.8508 26.9648V26.2705C40.8508 25.5791 40.7717 24.9668 40.6135 24.4336C40.4612 23.9004 40.2327 23.4521 39.928 23.0889C39.6292 22.7256 39.26 22.4502 38.8206 22.2627C38.387 22.0752 37.886 21.9814 37.3176 21.9814H34.4524V20.2236H37.3176C38.1672 20.2236 38.9436 20.3672 39.6467 20.6543C40.3499 20.9355 40.9563 21.3428 41.4661 21.876C41.9817 22.4092 42.3772 23.0479 42.6526 23.792C42.928 24.5361 43.0657 25.3682 43.0657 26.2881V26.9648C43.0657 27.8848 42.928 28.7168 42.6526 29.4609C42.3772 30.2051 41.9817 30.8438 41.4661 31.377C40.9504 31.9043 40.3352 32.3115 39.6204 32.5986C38.9114 32.8799 38.1174 33.0205 37.2385 33.0205ZM35.7268 20.2236V33.0205H33.5208V20.2236H35.7268ZM47.3372 23.5107V33.0205H45.2102V23.5107H47.3372ZM45.0696 21.0146C45.0696 20.6924 45.175 20.4258 45.386 20.2148C45.6028 19.998 45.9016 19.8896 46.2825 19.8896C46.6575 19.8896 46.9534 19.998 47.1702 20.2148C47.387 20.4258 47.4954 20.6924 47.4954 21.0146C47.4954 21.3311 47.387 21.5947 47.1702 21.8057C46.9534 22.0166 46.6575 22.1221 46.2825 22.1221C45.9016 22.1221 45.6028 22.0166 45.386 21.8057C45.175 21.5947 45.0696 21.3311 45.0696 21.0146ZM51.7844 25.3213V33.0205H49.6663V23.5107H51.6877L51.7844 25.3213ZM54.6936 23.4492L54.676 25.418C54.5471 25.3945 54.4065 25.377 54.2542 25.3652C54.1077 25.3535 53.9612 25.3477 53.8147 25.3477C53.4514 25.3477 53.1321 25.4004 52.8567 25.5059C52.5813 25.6055 52.3499 25.752 52.1624 25.9453C51.9807 26.1328 51.8401 26.3613 51.7405 26.6309C51.6409 26.9004 51.5823 27.2021 51.5647 27.5361L51.0813 27.5713C51.0813 26.9736 51.1399 26.4199 51.2571 25.9102C51.3743 25.4004 51.55 24.9521 51.7844 24.5654C52.0247 24.1787 52.3235 23.877 52.6809 23.6602C53.0442 23.4434 53.4631 23.335 53.9377 23.335C54.0667 23.335 54.2043 23.3467 54.3508 23.3701C54.5032 23.3936 54.6174 23.4199 54.6936 23.4492ZM60.0374 33.1963C59.3342 33.1963 58.6985 33.082 58.1301 32.8535C57.5676 32.6191 57.0872 32.2939 56.6887 31.8779C56.2961 31.4619 55.9944 30.9727 55.7834 30.4102C55.5725 29.8477 55.467 29.2412 55.467 28.5908V28.2393C55.467 27.4951 55.5754 26.8213 55.7922 26.2178C56.009 25.6143 56.3108 25.0986 56.6975 24.6709C57.0842 24.2373 57.5413 23.9062 58.0686 23.6777C58.5959 23.4492 59.1672 23.335 59.7825 23.335C60.4622 23.335 61.0569 23.4492 61.5667 23.6777C62.0764 23.9062 62.4983 24.2285 62.8323 24.6445C63.1721 25.0547 63.4241 25.5439 63.5881 26.1123C63.7581 26.6807 63.843 27.3076 63.843 27.9932V28.8984H56.4954V27.3779H61.7512V27.2109C61.7395 26.8301 61.6633 26.4727 61.5227 26.1387C61.3879 25.8047 61.1799 25.5352 60.8987 25.3301C60.6174 25.125 60.2424 25.0225 59.7737 25.0225C59.4221 25.0225 59.1086 25.0986 58.8333 25.251C58.5637 25.3975 58.3381 25.6113 58.1565 25.8926C57.9749 26.1738 57.8342 26.5137 57.7346 26.9121C57.6409 27.3047 57.594 27.7471 57.594 28.2393V28.5908C57.594 29.0068 57.6497 29.3936 57.761 29.751C57.8782 30.1025 58.0481 30.4102 58.2708 30.6738C58.4934 30.9375 58.7629 31.1455 59.0793 31.2979C59.3958 31.4443 59.7561 31.5176 60.1604 31.5176C60.6702 31.5176 61.1243 31.415 61.5227 31.21C61.9211 31.0049 62.2668 30.7148 62.5598 30.3398L63.676 31.4209C63.4709 31.7197 63.2043 32.0068 62.8762 32.2822C62.5481 32.5518 62.1467 32.7715 61.6721 32.9414C61.2034 33.1113 60.6584 33.1963 60.0374 33.1963ZM69.3801 31.5088C69.7258 31.5088 70.0364 31.4414 70.3118 31.3066C70.593 31.166 70.8186 30.9727 70.9885 30.7266C71.1643 30.4805 71.261 30.1963 71.2786 29.874H73.2737C73.262 30.4893 73.0803 31.0488 72.7288 31.5527C72.3772 32.0566 71.9114 32.458 71.3313 32.7568C70.7512 33.0498 70.1096 33.1963 69.4065 33.1963C68.6799 33.1963 68.0471 33.0732 67.5081 32.8271C66.969 32.5752 66.5208 32.2295 66.1633 31.79C65.8059 31.3506 65.5364 30.8438 65.3547 30.2695C65.179 29.6953 65.0911 29.0801 65.0911 28.4238V28.1162C65.0911 27.46 65.179 26.8447 65.3547 26.2705C65.5364 25.6904 65.8059 25.1807 66.1633 24.7412C66.5208 24.3018 66.969 23.959 67.5081 23.7129C68.0471 23.4609 68.677 23.335 69.3977 23.335C70.1594 23.335 70.8274 23.4873 71.4016 23.792C71.9758 24.0908 72.427 24.5098 72.7551 25.0488C73.0891 25.582 73.262 26.2031 73.2737 26.9121H71.2786C71.261 26.5605 71.1731 26.2441 71.0149 25.9629C70.8625 25.6758 70.6458 25.4473 70.3645 25.2773C70.0891 25.1074 69.7581 25.0225 69.3713 25.0225C68.9436 25.0225 68.5891 25.1104 68.3079 25.2861C68.0266 25.4561 67.8069 25.6904 67.6487 25.9893C67.4905 26.2822 67.3762 26.6133 67.3059 26.9824C67.2415 27.3457 67.2092 27.7236 67.2092 28.1162V28.4238C67.2092 28.8164 67.2415 29.1973 67.3059 29.5664C67.3704 29.9355 67.4817 30.2666 67.6399 30.5596C67.804 30.8467 68.0266 31.0781 68.3079 31.2539C68.5891 31.4238 68.9465 31.5088 69.3801 31.5088ZM79.259 23.5107V25.0576H73.8977V23.5107H79.259ZM75.4446 21.1816H77.5627V30.3926C77.5627 30.6855 77.6038 30.9111 77.6858 31.0693C77.7737 31.2217 77.8938 31.3242 78.0461 31.377C78.1985 31.4297 78.3772 31.4561 78.5823 31.4561C78.7288 31.4561 78.8694 31.4473 79.0042 31.4297C79.1389 31.4121 79.2473 31.3945 79.3293 31.377L79.3381 32.9941C79.1624 33.0469 78.9573 33.0938 78.7229 33.1348C78.4944 33.1758 78.2307 33.1963 77.9319 33.1963C77.4456 33.1963 77.0149 33.1113 76.6399 32.9414C76.2649 32.7656 75.9719 32.4814 75.761 32.0889C75.55 31.6963 75.4446 31.1748 75.4446 30.5244V21.1816ZM83.1614 23.5107V33.0205H81.0344V23.5107H83.1614ZM80.8938 21.0146C80.8938 20.6924 80.9993 20.4258 81.2102 20.2148C81.427 19.998 81.7258 19.8896 82.1067 19.8896C82.4817 19.8896 82.7776 19.998 82.9944 20.2148C83.2112 20.4258 83.3196 20.6924 83.3196 21.0146C83.3196 21.3311 83.2112 21.5947 82.9944 21.8057C82.7776 22.0166 82.4817 22.1221 82.1067 22.1221C81.7258 22.1221 81.427 22.0166 81.2102 21.8057C80.9993 21.5947 80.8938 21.3311 80.8938 21.0146ZM85.0774 28.3711V28.1689C85.0774 27.4834 85.177 26.8477 85.3762 26.2617C85.5754 25.6699 85.8625 25.1572 86.2375 24.7236C86.6184 24.2842 87.0813 23.9443 87.6262 23.7041C88.177 23.458 88.7981 23.335 89.4895 23.335C90.1868 23.335 90.8079 23.458 91.3528 23.7041C91.9036 23.9443 92.3694 24.2842 92.7502 24.7236C93.1311 25.1572 93.4211 25.6699 93.6204 26.2617C93.8196 26.8477 93.9192 27.4834 93.9192 28.1689V28.3711C93.9192 29.0566 93.8196 29.6924 93.6204 30.2783C93.4211 30.8643 93.1311 31.377 92.7502 31.8164C92.3694 32.25 91.9065 32.5898 91.3616 32.8359C90.8167 33.0762 90.1985 33.1963 89.5071 33.1963C88.8098 33.1963 88.1858 33.0762 87.635 32.8359C87.0901 32.5898 86.6272 32.25 86.2463 31.8164C85.8655 31.377 85.5754 30.8643 85.3762 30.2783C85.177 29.6924 85.0774 29.0566 85.0774 28.3711ZM87.1956 28.1689V28.3711C87.1956 28.7988 87.2395 29.2031 87.3274 29.584C87.4153 29.9648 87.553 30.2988 87.7405 30.5859C87.928 30.873 88.1682 31.0986 88.4612 31.2627C88.7542 31.4268 89.1028 31.5088 89.5071 31.5088C89.8997 31.5088 90.2395 31.4268 90.5266 31.2627C90.8196 31.0986 91.0598 30.873 91.2473 30.5859C91.4348 30.2988 91.5725 29.9648 91.6604 29.584C91.7542 29.2031 91.801 28.7988 91.801 28.3711V28.1689C91.801 27.7471 91.7542 27.3486 91.6604 26.9736C91.5725 26.5928 91.4319 26.2559 91.2385 25.9629C91.051 25.6699 90.8108 25.4414 90.5178 25.2773C90.2307 25.1074 89.8879 25.0225 89.4895 25.0225C89.0911 25.0225 88.7454 25.1074 88.4524 25.2773C88.1653 25.4414 87.928 25.6699 87.7405 25.9629C87.553 26.2559 87.4153 26.5928 87.3274 26.9736C87.2395 27.3486 87.1956 27.7471 87.1956 28.1689ZM97.7952 25.541V33.0205H95.677V23.5107H97.6721L97.7952 25.541ZM97.4172 27.9141L96.7317 27.9053C96.7375 27.2314 96.8313 26.6133 97.0129 26.0508C97.2004 25.4883 97.4583 25.0049 97.7864 24.6006C98.1204 24.1963 98.5188 23.8857 98.9817 23.6689C99.4446 23.4463 99.9602 23.335 100.529 23.335C100.986 23.335 101.399 23.3994 101.768 23.5283C102.143 23.6514 102.462 23.8535 102.726 24.1348C102.995 24.416 103.2 24.7822 103.341 25.2334C103.482 25.6787 103.552 26.2266 103.552 26.877V33.0205H101.425V26.8682C101.425 26.4111 101.358 26.0508 101.223 25.7871C101.094 25.5176 100.904 25.3271 100.652 25.2158C100.406 25.0986 100.098 25.04 99.7288 25.04C99.3655 25.04 99.0403 25.1162 98.7532 25.2686C98.4661 25.4209 98.2229 25.6289 98.0237 25.8926C97.8303 26.1562 97.6809 26.4609 97.5754 26.8066C97.47 27.1523 97.4172 27.5215 97.4172 27.9141ZM111.049 30.4453C111.049 30.2344 110.996 30.0439 110.891 29.874C110.785 29.6982 110.583 29.54 110.284 29.3994C109.991 29.2588 109.558 29.1299 108.984 29.0127C108.48 28.9014 108.017 28.7695 107.595 28.6172C107.179 28.459 106.822 28.2686 106.523 28.0459C106.224 27.8232 105.992 27.5596 105.828 27.2549C105.664 26.9502 105.582 26.5986 105.582 26.2002C105.582 25.8135 105.667 25.4473 105.837 25.1016C106.007 24.7559 106.25 24.4512 106.567 24.1875C106.883 23.9238 107.267 23.7158 107.718 23.5635C108.175 23.4111 108.685 23.335 109.247 23.335C110.044 23.335 110.727 23.4697 111.295 23.7393C111.869 24.0029 112.309 24.3633 112.614 24.8203C112.918 25.2715 113.071 25.7812 113.071 26.3496H110.952C110.952 26.0977 110.888 25.8633 110.759 25.6465C110.636 25.4238 110.448 25.2451 110.197 25.1104C109.945 24.9697 109.628 24.8994 109.247 24.8994C108.884 24.8994 108.582 24.958 108.342 25.0752C108.108 25.1865 107.932 25.333 107.815 25.5146C107.703 25.6963 107.648 25.8955 107.648 26.1123C107.648 26.2705 107.677 26.4141 107.736 26.543C107.8 26.666 107.906 26.7803 108.052 26.8857C108.198 26.9854 108.398 27.0791 108.65 27.167C108.907 27.2549 109.23 27.3398 109.616 27.4219C110.343 27.5742 110.967 27.7705 111.489 28.0107C112.016 28.2451 112.42 28.5498 112.701 28.9248C112.983 29.2939 113.123 29.7627 113.123 30.3311C113.123 30.7529 113.032 31.1396 112.851 31.4912C112.675 31.8369 112.417 32.1387 112.077 32.3965C111.738 32.6484 111.33 32.8447 110.856 32.9854C110.387 33.126 109.86 33.1963 109.274 33.1963C108.412 33.1963 107.683 33.0439 107.085 32.7393C106.488 32.4287 106.033 32.0332 105.723 31.5527C105.418 31.0664 105.266 30.5625 105.266 30.041H107.314C107.337 30.4336 107.446 30.7471 107.639 30.9814C107.838 31.21 108.084 31.377 108.377 31.4824C108.676 31.582 108.984 31.6318 109.3 31.6318C109.681 31.6318 110 31.582 110.258 31.4824C110.516 31.377 110.712 31.2363 110.847 31.0605C110.982 30.8789 111.049 30.6738 111.049 30.4453Z" fill="white"/>
<defs>
<filter id="filter0_d_139_1268" x="-3.016e-05" y="0.000213981" width="154.44" height="55.4399" filterUnits="userSpaceOnUse" color-interpolation-filters="sRGB">
<feFlood flood-opacity="0" result="BackgroundImageFix"/>
<feColorMatrix in="SourceAlpha" type="matrix" values="0 0 0 0 0 0 0 0 0 0 0 0 0 0 0 0 0 0 127 0" result="hardAlpha"/>
<feOffset dx="1.8" dy="1.8"/>
<feGaussianBlur stdDeviation="3.51"/>
<feComposite in2="hardAlpha" operator="out"/>
<feColorMatrix type="matrix" values="0 0 0 0 0 0 0 0 0 0 0 0 0 0 0 0 0 0 0.25 0"/>
<feBlend mode="normal" in2="BackgroundImageFix" result="effect1_dropShadow_139_1268"/>
<feBlend mode="normal" in="SourceGraphic" in2="effect1_dropShadow_139_1268" result="shape"/>
</filter>
</defs>
</svg>
