<svg width="348" height="48" viewBox="0 0 348 48" fill="none" xmlns="http://www.w3.org/2000/svg">
<g filter="url(#filter0_d_133_1197)">
<rect x="4" width="340" height="40" rx="20" fill="white" shape-rendering="crispEdges"/>
<rect x="5" y="1" width="338" height="38" rx="19" stroke="#8F8F8F" stroke-opacity="0.31" stroke-width="2" shape-rendering="crispEdges"/>
<path d="M45.8427 24.051L41.9547 20.1594C42.8659 19.0453 43.3139 17.6237 43.2061 16.1887C43.0982 14.7537 42.4427 13.415 41.3752 12.4496C40.3077 11.4841 38.9098 10.9658 37.4707 11.0018C36.0316 11.0377 34.6613 11.6253 33.6434 12.6428C32.6255 13.6604 32.0377 15.0301 32.0018 16.4688C31.9658 17.9074 32.4843 19.3048 33.4501 20.3719C34.4159 21.4391 35.755 22.0943 37.1905 22.2021C38.626 22.31 40.0481 21.8621 41.1625 20.9512L45.0506 24.8428C45.1563 24.9448 45.2978 25.0013 45.4447 25C45.5916 24.9987 45.7321 24.9398 45.8359 24.836C45.9398 24.7322 45.9987 24.5917 46 24.4449C46.0013 24.298 45.9448 24.1566 45.8427 24.051ZM37.6199 21.0979C36.7335 21.0979 35.867 20.8352 35.1301 20.3429C34.3931 19.8506 33.8187 19.1509 33.4795 18.3323C33.1403 17.5137 33.0515 16.6129 33.2244 15.7439C33.3974 14.8749 33.8242 14.0766 34.4509 13.4501C35.0777 12.8235 35.8762 12.3969 36.7456 12.224C37.6149 12.0511 38.516 12.1399 39.3349 12.4789C40.1538 12.818 40.8537 13.3922 41.3462 14.129C41.8386 14.8657 42.1014 15.7319 42.1014 16.6179C42.1001 17.8057 41.6275 18.9444 40.7873 19.7843C39.9472 20.6242 38.8081 21.0966 37.6199 21.0979Z" fill="#BFBFBF"/>
<path d="M63.2869 14.8182C63.223 14.2784 62.9638 13.8594 62.5092 13.5611C62.0547 13.2628 61.4972 13.1136 60.8366 13.1136C60.3537 13.1136 59.9311 13.1918 59.5689 13.348C59.2102 13.5043 58.9297 13.7191 58.7273 13.9925C58.5284 14.266 58.429 14.5767 58.429 14.9247C58.429 15.2159 58.4982 15.4663 58.6367 15.6758C58.7788 15.8817 58.9599 16.054 59.18 16.1925C59.4002 16.3274 59.631 16.4393 59.8725 16.5281C60.114 16.6133 60.3359 16.6825 60.5384 16.7358L61.6463 17.0341C61.9304 17.1087 62.2464 17.2116 62.5945 17.343C62.946 17.4744 63.2816 17.6538 63.6012 17.881C63.9244 18.1048 64.1907 18.3924 64.4002 18.744C64.6097 19.0955 64.7145 19.527 64.7145 20.0384C64.7145 20.6278 64.56 21.1605 64.2511 21.6364C63.9457 22.1122 63.4982 22.4904 62.9087 22.771C62.3228 23.0515 61.6108 23.1918 60.7727 23.1918C59.9915 23.1918 59.315 23.0657 58.7433 22.8136C58.1751 22.5614 57.7276 22.2099 57.4009 21.7589C57.0778 21.3079 56.8949 20.7841 56.8523 20.1875H58.2159C58.2514 20.5994 58.3899 20.9403 58.6314 21.2102C58.8764 21.4766 59.1854 21.6754 59.5582 21.8068C59.9347 21.9347 60.3395 21.9986 60.7727 21.9986C61.277 21.9986 61.7298 21.9169 62.131 21.7536C62.5323 21.5866 62.8501 21.3558 63.0845 21.0611C63.3189 20.7628 63.4361 20.4148 63.4361 20.017C63.4361 19.6548 63.3349 19.3601 63.1325 19.1328C62.93 18.9055 62.6637 18.7209 62.3335 18.5788C62.0032 18.4368 61.6463 18.3125 61.2628 18.206L59.9205 17.8224C59.0682 17.5774 58.3935 17.2276 57.8963 16.7731C57.3991 16.3185 57.1506 15.7237 57.1506 14.9886C57.1506 14.3778 57.3157 13.8452 57.646 13.3906C57.9798 12.9325 58.4272 12.5774 58.9883 12.3253C59.5529 12.0696 60.1832 11.9418 60.8793 11.9418C61.5824 11.9418 62.2074 12.0678 62.7543 12.32C63.3011 12.5685 63.7344 12.9094 64.054 13.3427C64.3771 13.7759 64.5476 14.2678 64.5653 14.8182H63.2869ZM70.1464 23.1705C69.358 23.1705 68.678 22.9964 68.1063 22.6484C67.5381 22.2969 67.0995 21.8068 66.7906 21.1783C66.4852 20.5462 66.3325 19.8111 66.3325 18.973C66.3325 18.1349 66.4852 17.3963 66.7906 16.7571C67.0995 16.1143 67.5292 15.6136 68.0796 15.255C68.6336 14.8928 69.2799 14.7116 70.0186 14.7116C70.4447 14.7116 70.8655 14.7827 71.281 14.9247C71.6965 15.0668 72.0747 15.2976 72.4156 15.6172C72.7565 15.9332 73.0281 16.3523 73.2306 16.8743C73.433 17.3963 73.5342 18.0391 73.5342 18.8026V19.3352H67.2274V18.2486H72.2558C72.2558 17.7869 72.1634 17.375 71.9788 17.0128C71.7977 16.6506 71.5384 16.3647 71.2011 16.1552C70.8673 15.9457 70.4731 15.8409 70.0186 15.8409C69.5178 15.8409 69.0846 15.9652 68.7188 16.2138C68.3566 16.4588 68.0779 16.7784 67.8825 17.1726C67.6872 17.5668 67.5896 17.9893 67.5896 18.4403V19.1648C67.5896 19.7827 67.6961 20.3065 67.9092 20.7362C68.1258 21.1623 68.4259 21.4872 68.8094 21.7109C69.1929 21.9311 69.6386 22.0412 70.1464 22.0412C70.4767 22.0412 70.7749 21.995 71.0413 21.9027C71.3112 21.8068 71.5438 21.6648 71.7391 21.4766C71.9344 21.2848 72.0853 21.0469 72.1919 20.7628L73.4063 21.1037C73.2785 21.5156 73.0637 21.8778 72.7618 22.1903C72.46 22.4993 72.0871 22.7408 71.6432 22.9148C71.1993 23.0852 70.7004 23.1705 70.1464 23.1705ZM77.8541 23.1918C77.3357 23.1918 76.8651 23.0941 76.4426 22.8988C76.02 22.6999 75.6844 22.4141 75.4358 22.0412C75.1872 21.6648 75.0629 21.2102 75.0629 20.6776C75.0629 20.2088 75.1553 19.8288 75.3399 19.5376C75.5246 19.2429 75.7714 19.0121 76.0803 18.8452C76.3893 18.6783 76.7302 18.554 77.1031 18.4723C77.4795 18.3871 77.8577 18.3196 78.2377 18.2699C78.7348 18.206 79.1379 18.158 79.4468 18.1261C79.7593 18.0906 79.9866 18.032 80.1286 17.9503C80.2742 17.8686 80.347 17.7266 80.347 17.5241V17.4815C80.347 16.956 80.2032 16.5476 79.9156 16.2564C79.6315 15.9652 79.2 15.8196 78.6212 15.8196C78.021 15.8196 77.5505 15.951 77.2096 16.2138C76.8687 16.4766 76.629 16.7571 76.4905 17.0554L75.2973 16.6293C75.5104 16.1321 75.7945 15.745 76.1496 15.468C76.5083 15.1875 76.8989 14.9922 77.3215 14.8821C77.7476 14.7685 78.1666 14.7116 78.5786 14.7116C78.8414 14.7116 79.1432 14.7436 79.4841 14.8075C79.8286 14.8679 80.1606 14.994 80.4802 15.1857C80.8034 15.3775 81.0715 15.6669 81.2845 16.054C81.4976 16.4411 81.6041 16.9595 81.6041 17.6094V23H80.347V21.892H80.2831C80.1979 22.0696 80.0558 22.2596 79.857 22.462C79.6581 22.6644 79.3936 22.8366 79.0633 22.9787C78.733 23.1207 78.33 23.1918 77.8541 23.1918ZM78.0459 22.0625C78.5431 22.0625 78.9621 21.9648 79.303 21.7695C79.6475 21.5742 79.9067 21.3221 80.0807 21.0131C80.2583 20.7042 80.347 20.3793 80.347 20.0384V18.8878C80.2938 18.9517 80.1766 19.0103 79.9955 19.0636C79.8179 19.1133 79.6119 19.1577 79.3776 19.1967C79.1468 19.2322 78.9213 19.2642 78.7011 19.2926C78.4845 19.3175 78.3087 19.3388 78.1737 19.3565C77.847 19.3991 77.5416 19.4684 77.2575 19.5643C76.977 19.6566 76.7497 19.7969 76.5757 19.9851C76.4053 20.1697 76.32 20.4219 76.32 20.7415C76.32 21.1783 76.4816 21.5085 76.8048 21.7322C77.1315 21.9524 77.5452 22.0625 78.0459 22.0625ZM83.8986 23V14.8182H85.1131V16.054H85.1983C85.3475 15.6491 85.6174 15.3207 86.008 15.0685C86.3986 14.8164 86.839 14.6903 87.329 14.6903C87.4213 14.6903 87.5368 14.6921 87.6752 14.6957C87.8137 14.6992 87.9185 14.7045 87.9895 14.7116V15.9901C87.9469 15.9794 87.8493 15.9634 87.6966 15.9421C87.5474 15.9173 87.3894 15.9048 87.2225 15.9048C86.8248 15.9048 86.4696 15.9883 86.1571 16.1552C85.8482 16.3185 85.6032 16.5458 85.4221 16.837C85.2445 17.1246 85.1557 17.4531 85.1557 17.8224V23H83.8986ZM92.5545 23.1705C91.7875 23.1705 91.127 22.9893 90.573 22.6271C90.019 22.2649 89.5929 21.766 89.2946 21.1303C88.9963 20.4947 88.8471 19.7685 88.8471 18.9517C88.8471 18.1207 88.9998 17.3874 89.3052 16.7518C89.6142 16.1126 90.0439 15.6136 90.5943 15.255C91.1483 14.8928 91.7946 14.7116 92.5332 14.7116C93.1085 14.7116 93.627 14.8182 94.0886 15.0312C94.5502 15.2443 94.9284 15.5426 95.2232 15.9261C95.5179 16.3097 95.7008 16.7571 95.7718 17.2685H94.5147C94.4189 16.8956 94.2058 16.5653 93.8755 16.2777C93.5488 15.9865 93.1085 15.8409 92.5545 15.8409C92.0645 15.8409 91.6348 15.9687 91.2654 16.2244C90.8997 16.4766 90.6138 16.8335 90.4078 17.2951C90.2054 17.7532 90.1042 18.2912 90.1042 18.9091C90.1042 19.5412 90.2037 20.0916 90.4025 20.5604C90.6049 21.0291 90.889 21.3931 91.2548 21.6523C91.6241 21.9116 92.0574 22.0412 92.5545 22.0412C92.8812 22.0412 93.1777 21.9844 93.4441 21.8707C93.7104 21.7571 93.9359 21.5938 94.1206 21.3807C94.3052 21.1676 94.4366 20.9119 94.5147 20.6136H95.7718C95.7008 21.0966 95.525 21.5316 95.2445 21.9187C94.9675 22.3022 94.6 22.6076 94.1419 22.8349C93.6873 23.0586 93.1582 23.1705 92.5545 23.1705ZM98.8667 18.0781V23H97.6096V12.0909H98.8667V16.0966H98.9732C99.165 15.674 99.4526 15.3384 99.8361 15.0898C100.223 14.8377 100.738 14.7116 101.381 14.7116C101.938 14.7116 102.427 14.8235 102.846 15.0472C103.265 15.2674 103.59 15.6065 103.82 16.0646C104.055 16.5192 104.172 17.098 104.172 17.8011V23H102.915V17.8864C102.915 17.2365 102.746 16.734 102.409 16.3789C102.075 16.0202 101.612 15.8409 101.019 15.8409C100.607 15.8409 100.237 15.9279 99.9107 16.1019C99.5875 16.2759 99.3319 16.5298 99.1436 16.8636C98.959 17.1974 98.8667 17.6023 98.8667 18.0781Z" fill="#868686"/>
</g>
<defs>
<filter id="filter0_d_133_1197" x="0" y="0" width="348" height="48" filterUnits="userSpaceOnUse" color-interpolation-filters="sRGB">
<feFlood flood-opacity="0" result="BackgroundImageFix"/>
<feColorMatrix in="SourceAlpha" type="matrix" values="0 0 0 0 0 0 0 0 0 0 0 0 0 0 0 0 0 0 127 0" result="hardAlpha"/>
<feOffset dy="4"/>
<feGaussianBlur stdDeviation="2"/>
<feComposite in2="hardAlpha" operator="out"/>
<feColorMatrix type="matrix" values="0 0 0 0 0 0 0 0 0 0 0 0 0 0 0 0 0 0 0.25 0"/>
<feBlend mode="normal" in2="BackgroundImageFix" result="effect1_dropShadow_133_1197"/>
<feBlend mode="normal" in="SourceGraphic" in2="effect1_dropShadow_133_1197" result="shape"/>
</filter>
</defs>
</svg>
