<svg width="107" height="107" viewBox="0 0 107 107" fill="none" xmlns="http://www.w3.org/2000/svg">
<g filter="url(#filter0_d_133_1221)">
<rect x="6.23999" y="31.1997" width="62.4" height="62.4" rx="31.2" fill="white" shape-rendering="crispEdges"/>
<g clip-path="url(#clip0_133_1221)">
<path d="M44.9476 48.6357C43.4105 48.6597 41.907 49.0887 40.5888 49.8796C39.2706 50.6705 38.1845 51.7953 37.4401 53.1402C36.6957 51.7953 35.6095 50.6705 34.2913 49.8796C32.9732 49.0887 31.4696 48.6597 29.9326 48.6357C27.4823 48.7422 25.1738 49.8141 23.5113 51.6172C21.8489 53.4204 20.9676 55.8082 21.0601 58.259C21.0601 64.4656 27.593 71.2442 33.0721 75.8402C34.2954 76.8682 35.8421 77.4318 37.4401 77.4318C39.038 77.4318 40.5847 76.8682 41.8081 75.8402C47.2872 71.2442 53.8201 64.4656 53.8201 58.259C53.9126 55.8082 53.0313 53.4204 51.3688 51.6172C49.7064 49.8141 47.3978 48.7422 44.9476 48.6357ZM40.0541 73.7517C39.3224 74.3679 38.3966 74.7058 37.4401 74.7058C36.4836 74.7058 35.5578 74.3679 34.8261 73.7517C27.8127 67.8672 23.7901 62.2216 23.7901 58.259C23.6968 56.5319 24.2902 54.8379 25.4409 53.5466C26.5915 52.2553 28.2062 51.4713 29.9326 51.3657C31.659 51.4713 33.2736 52.2553 34.4243 53.5466C35.575 54.8379 36.1684 56.5319 36.0751 58.259C36.0751 58.621 36.2189 58.9682 36.4749 59.2242C36.7309 59.4802 37.0781 59.624 37.4401 59.624C37.8021 59.624 38.1493 59.4802 38.4053 59.2242C38.6613 58.9682 38.8051 58.621 38.8051 58.259C38.7118 56.5319 39.3052 54.8379 40.4559 53.5466C41.6066 52.2553 43.2212 51.4713 44.9476 51.3657C46.674 51.4713 48.2886 52.2553 49.4393 53.5466C50.59 54.8379 51.1834 56.5319 51.0901 58.259C51.0901 62.2216 47.0674 67.8672 40.0541 73.7463V73.7517Z" fill="#FDAF5C"/>
</g>
</g>
<g filter="url(#filter1_d_133_1221)">
<rect x="37.4399" width="62.4" height="62.4" rx="31.2" fill="#FFF0DF" shape-rendering="crispEdges"/>
<mask id="path-4-inside-1_133_1221" fill="white">
<path fill-rule="evenodd" clip-rule="evenodd" d="M76.0725 17.3354C78.4981 17.4409 80.7831 18.5026 82.4289 20.2876C84.0747 22.0727 84.9472 24.4365 84.8557 26.8628C84.8557 33.0074 78.3884 39.7181 72.9641 44.2681C71.753 45.2858 70.2218 45.8442 68.6398 45.8442C67.0579 45.8442 65.5267 45.2858 64.3156 44.2681C58.8913 39.7181 52.424 33.0074 52.424 26.8628C52.3325 24.4365 53.2049 22.0727 54.8508 20.2876C56.4966 18.5026 58.7816 17.4409 61.2072 17.3354C62.7289 17.3591 64.2177 17.7839 65.5227 18.5669C66.8277 19.3499 67.9029 20.4639 68.6398 21.7954C69.3768 20.4639 70.452 19.3499 71.757 18.5669C73.062 17.7839 74.5508 17.3591 76.0725 17.3354Z"/>
</mask>
<path fill-rule="evenodd" clip-rule="evenodd" d="M76.0725 17.3354C78.4981 17.4409 80.7831 18.5026 82.4289 20.2876C84.0747 22.0727 84.9472 24.4365 84.8557 26.8628C84.8557 33.0074 78.3884 39.7181 72.9641 44.2681C71.753 45.2858 70.2218 45.8442 68.6398 45.8442C67.0579 45.8442 65.5267 45.2858 64.3156 44.2681C58.8913 39.7181 52.424 33.0074 52.424 26.8628C52.3325 24.4365 53.2049 22.0727 54.8508 20.2876C56.4966 18.5026 58.7816 17.4409 61.2072 17.3354C62.7289 17.3591 64.2177 17.7839 65.5227 18.5669C66.8277 19.3499 67.9029 20.4639 68.6398 21.7954C69.3768 20.4639 70.452 19.3499 71.757 18.5669C73.062 17.7839 74.5508 17.3591 76.0725 17.3354Z" fill="#FDAF5C"/>
<path d="M76.0725 17.3354L76.1731 15.021L76.1048 15.0181L76.0364 15.0191L76.0725 17.3354ZM82.4289 20.2876L84.1321 18.7173L84.132 18.7173L82.4289 20.2876ZM84.8557 26.8628L82.5407 26.7754L82.5391 26.8191V26.8628H84.8557ZM72.9641 44.2681L71.4753 42.4932L71.4737 42.4945L72.9641 44.2681ZM68.6398 45.8442L68.6398 48.1608H68.6398V45.8442ZM64.3156 44.2681L65.806 42.4945L65.8044 42.4932L64.3156 44.2681ZM52.424 26.8628H54.7406V26.8191L54.739 26.7754L52.424 26.8628ZM54.8508 20.2876L53.1476 18.7173L53.1476 18.7173L54.8508 20.2876ZM61.2072 17.3354L61.2433 15.0191L61.1749 15.0181L61.1066 15.021L61.2072 17.3354ZM65.5227 18.5669L66.7145 16.5804L66.7145 16.5804L65.5227 18.5669ZM68.6398 21.7954L66.613 22.9172L68.6398 26.5793L70.6667 22.9172L68.6398 21.7954ZM71.757 18.5669L70.5652 16.5804L70.5651 16.5804L71.757 18.5669ZM76.0725 17.3354L75.9719 19.6499C77.7855 19.7287 79.4945 20.5226 80.7258 21.8579L82.4289 20.2876L84.132 18.7173C82.0717 16.4826 79.2107 15.1531 76.1731 15.021L76.0725 17.3354ZM82.4289 20.2876L80.7257 21.8579C81.9567 23.193 82.6092 24.9609 82.5407 26.7754L84.8557 26.8628L87.1706 26.9501C87.2853 23.9121 86.1928 20.9524 84.1321 18.7173L82.4289 20.2876ZM84.8557 26.8628H82.5391C82.5391 29.1727 81.2913 31.8827 79.1007 34.7602C76.9519 37.5829 74.1225 40.2727 71.4753 42.4932L72.9641 44.2681L74.4528 46.0429C77.2299 43.7135 80.3464 40.7729 82.7872 37.5666C85.1864 34.4151 87.1723 30.6974 87.1723 26.8628H84.8557ZM72.9641 44.2681L71.4737 42.4945C70.6796 43.1618 69.6761 43.5276 68.6398 43.5276V45.8442V48.1608C70.7675 48.1608 72.8263 47.4098 74.4544 46.0416L72.9641 44.2681ZM68.6398 45.8442L68.6399 43.5276C67.6036 43.5276 66.6001 43.1618 65.806 42.4945L64.3156 44.2681L62.8252 46.0416C64.4534 47.4098 66.5122 48.1608 68.6398 48.1608L68.6398 45.8442ZM64.3156 44.2681L65.8044 42.4932C63.1572 40.2727 60.3278 37.5829 58.179 34.7602C55.9884 31.8827 54.7406 29.1727 54.7406 26.8628H52.424H50.1074C50.1074 30.6974 52.0933 34.4151 54.4924 37.5666C56.9333 40.7729 60.0497 43.7135 62.8268 46.0429L64.3156 44.2681ZM52.424 26.8628L54.739 26.7754C54.6705 24.9609 55.323 23.193 56.554 21.8579L54.8508 20.2876L53.1476 18.7173C51.0869 20.9524 49.9944 23.9121 50.1091 26.9501L52.424 26.8628ZM54.8508 20.2876L56.5539 21.8579C57.7851 20.5226 59.4942 19.7287 61.3078 19.6499L61.2072 17.3354L61.1066 15.021C58.069 15.1531 55.208 16.4826 53.1476 18.7173L54.8508 20.2876ZM61.2072 17.3354L61.1712 19.6518C62.2853 19.6691 63.3754 19.9802 64.3308 20.5534L65.5227 18.5669L66.7145 16.5804C65.06 15.5877 63.1724 15.0491 61.2433 15.0191L61.2072 17.3354ZM65.5227 18.5669L64.3308 20.5534C65.2859 21.1264 66.0732 21.942 66.613 22.9172L68.6398 21.7954L70.6667 20.6736C69.7325 18.9858 68.3694 17.5734 66.7145 16.5804L65.5227 18.5669ZM68.6398 21.7954L70.6667 22.9172C71.2065 21.942 71.9938 21.1264 72.9489 20.5534L71.757 18.5669L70.5651 16.5804C68.9102 17.5734 67.5472 18.9858 66.613 20.6736L68.6398 21.7954ZM71.757 18.5669L72.9489 20.5534C73.9043 19.9802 74.9944 19.6691 76.1085 19.6518L76.0725 17.3354L76.0364 15.0191C74.1072 15.0491 72.2197 15.5877 70.5652 16.5804L71.757 18.5669Z" fill="#FF8000" fill-opacity="0.51" mask="url(#path-4-inside-1_133_1221)"/>
</g>
<defs>
<filter id="filter0_d_133_1221" x="-1.04904e-05" y="31.1997" width="74.8799" height="74.8799" filterUnits="userSpaceOnUse" color-interpolation-filters="sRGB">
<feFlood flood-opacity="0" result="BackgroundImageFix"/>
<feColorMatrix in="SourceAlpha" type="matrix" values="0 0 0 0 0 0 0 0 0 0 0 0 0 0 0 0 0 0 127 0" result="hardAlpha"/>
<feOffset dy="6.24"/>
<feGaussianBlur stdDeviation="3.12"/>
<feComposite in2="hardAlpha" operator="out"/>
<feColorMatrix type="matrix" values="0 0 0 0 0 0 0 0 0 0 0 0 0 0 0 0 0 0 0.25 0"/>
<feBlend mode="normal" in2="BackgroundImageFix" result="effect1_dropShadow_133_1221"/>
<feBlend mode="normal" in="SourceGraphic" in2="effect1_dropShadow_133_1221" result="shape"/>
</filter>
<filter id="filter1_d_133_1221" x="31.1999" y="0" width="74.8799" height="74.8799" filterUnits="userSpaceOnUse" color-interpolation-filters="sRGB">
<feFlood flood-opacity="0" result="BackgroundImageFix"/>
<feColorMatrix in="SourceAlpha" type="matrix" values="0 0 0 0 0 0 0 0 0 0 0 0 0 0 0 0 0 0 127 0" result="hardAlpha"/>
<feOffset dy="6.24"/>
<feGaussianBlur stdDeviation="3.12"/>
<feComposite in2="hardAlpha" operator="out"/>
<feColorMatrix type="matrix" values="0 0 0 0 0 0 0 0 0 0 0 0 0 0 0 0 0 0 0.25 0"/>
<feBlend mode="normal" in2="BackgroundImageFix" result="effect1_dropShadow_133_1221"/>
<feBlend mode="normal" in="SourceGraphic" in2="effect1_dropShadow_133_1221" result="shape"/>
</filter>
<clipPath id="clip0_133_1221">
<rect width="32.76" height="32.76" fill="white" transform="translate(21.0601 46.0195)"/>
</clipPath>
</defs>
</svg>
